<?xml version="1.0" encoding="UTF-8" standalone="no"?>
<svg
   xmlns:dc="http://purl.org/dc/elements/1.1/"
   xmlns:cc="http://creativecommons.org/ns#"
   xmlns:rdf="http://www.w3.org/1999/02/22-rdf-syntax-ns#"
   xmlns:svg="http://www.w3.org/2000/svg"
   xmlns="http://www.w3.org/2000/svg"
   width="86.497108mm"
   height="15.521097mm"
   viewBox="0 0 306.48581 54.996013"
   id="svg2"
   version="1.1">
  <defs
     id="defs4" />
  <metadata
     id="metadata7">
    <rdf:RDF>
      <cc:Work
         rdf:about="">
        <dc:format>image/svg+xml</dc:format>
        <dc:type
           rdf:resource="http://purl.org/dc/dcmitype/StillImage" />
        <dc:title></dc:title>
      </cc:Work>
    </rdf:RDF>
  </metadata>
  <g
     id="layer1"
     transform="translate(-133.78573,-257.57649)">
    <rect
       style="opacity:0.99;fill:#d53343;fill-opacity:1;fill-rule:nonzero;stroke:#000000;stroke-width:0.88059664;stroke-linecap:round;stroke-linejoin:round;stroke-miterlimit:4;stroke-dasharray:none;stroke-opacity:0.21634617"
       id="rect4136"
       width="305.60522"
       height="54.115417"
       x="134.22603"
       y="258.01678"
       ry="6.2175207" />
    <g
       id="g4200">
      <rect
         ry="3.8928702"
         y="268.56317"
         x="145.65422"
         height="33.022636"
         width="110.5229"
         id="rect4136-3"
         style="opacity:1;fill:#f8f9fa;fill-opacity:1;fill-rule:nonzero;stroke:none;stroke-width:0.94400579;stroke-linecap:round;stroke-linejoin:round;stroke-miterlimit:4;stroke-dasharray:none;stroke-opacity:0.21568627" />
      <g
         id="text4155"
         style="font-style:normal;font-variant:normal;font-weight:normal;font-stretch:normal;font-size:31.84191513px;line-height:125%;font-family:Ubuntu;-inkscape-font-specification:'Ubuntu, Normal';text-align:start;letter-spacing:0px;word-spacing:0px;writing-mode:lr-tb;text-anchor:start;fill:#000000;fill-opacity:1;stroke:none;stroke-width:1px;stroke-linecap:butt;stroke-linejoin:miter;stroke-opacity:1">
        <path
           id="path5921"
           style=""
           d="m 167.59087,284.18291 q -0.54131,-0.44578 -1.56025,-0.85973 -1.01894,-0.41394 -2.22894,-0.41394 -1.27367,0 -2.19709,0.47763 -0.89157,0.44578 -1.46473,1.27367 -0.57315,0.79605 -0.82789,1.91052 -0.25473,1.11446 -0.25473,2.38814 0,2.89761 1.43288,4.48971 1.43289,1.56025 3.82103,1.56025 1.21,0 2.00605,-0.0955 0.82788,-0.12737 1.27367,-0.25474 l 0,-10.47599 z m 0,-11.14467 2.9613,-0.50947 0,24.2317 q -1.01894,0.28658 -2.61104,0.57315 -1.59209,0.28658 -3.66182,0.28658 -1.91051,0 -3.43892,-0.605 -1.52842,-0.60499 -2.61104,-1.71946 -1.08263,-1.11447 -1.68762,-2.70656 -0.57316,-1.62394 -0.57316,-3.62998 0,-1.91051 0.47763,-3.50261 0.50947,-1.5921 1.46473,-2.73841 0.95526,-1.1463 2.32446,-1.78314 1.40104,-0.63684 3.18419,-0.63684 1.43289,0 2.51551,0.3821 1.11447,0.38211 1.65578,0.73237 l 0,-8.37443 z" />
        <path
           id="path5923"
           style=""
           d="m 174.75033,288.99104 q 0,-2.19709 0.63684,-3.82103 0.63683,-1.65578 1.68762,-2.7384 1.05078,-1.08263 2.41998,-1.62394 1.36921,-0.54131 2.80209,-0.54131 3.3434,0 5.12655,2.10156 1.78315,2.06973 1.78315,6.33654 0,0.19106 0,0.50948 0,0.28657 -0.0318,0.54131 l -11.33573,0 q 0.19106,2.57919 1.49657,3.91655 1.30552,1.33736 4.07577,1.33736 1.56025,0 2.61104,-0.25473 1.08262,-0.28658 1.62393,-0.54131 l 0.41395,2.48367 q -0.54131,0.28657 -1.91052,0.60499 -1.33736,0.31842 -3.05682,0.31842 -2.16525,0 -3.75735,-0.63684 -1.56025,-0.66868 -2.57919,-1.81499 -1.01894,-1.14631 -1.52841,-2.70656 -0.47763,-1.59209 -0.47763,-3.47077 z m 11.36756,-1.62394 q 0.0318,-2.00604 -1.01894,-3.27971 -1.01894,-1.30552 -2.83393,-1.30552 -1.01894,0 -1.81499,0.41394 -0.76421,0.38211 -1.30552,1.01894 -0.54131,0.63684 -0.85973,1.46473 -0.28658,0.82789 -0.3821,1.68762 l 8.21521,0 z" />
        <path
           id="path5925"
           style=""
           d="m 206.38826,280.6803 q -1.24184,4.64892 -2.92946,8.91574 -1.65578,4.26682 -3.21603,7.64206 l -2.67472,0 q -1.56026,-3.37524 -3.24788,-7.64206 -1.65578,-4.26682 -2.89761,-8.91574 l 3.18419,0 q 0.3821,1.56026 0.89157,3.3434 0.54131,1.75131 1.11447,3.50261 0.605,1.71947 1.20999,3.34341 0.605,1.62393 1.14631,2.89761 0.54131,-1.27368 1.14631,-2.89761 0.605,-1.62394 1.17815,-3.34341 0.605,-1.7513 1.11447,-3.50261 0.54131,-1.78314 0.92341,-3.3434 l 3.05683,0 z" />
        <path
           id="path5927"
           style=""
           d="m 212.40488,297.2381 -2.96129,0 0,-16.5578 2.96129,0 0,16.5578 z m -1.49657,-19.55094 q -0.79604,0 -1.3692,-0.50947 -0.54131,-0.54131 -0.54131,-1.43288 0,-0.89158 0.54131,-1.40105 0.57316,-0.54131 1.3692,-0.54131 0.79605,0 1.33736,0.54131 0.57316,0.50947 0.57316,1.40105 0,0.89157 -0.57316,1.43288 -0.54131,0.50947 -1.33736,0.50947 z" />
        <path
           id="path5929"
           style=""
           d="m 224.72472,297.6202 q -2.00604,0 -3.53445,-0.63684 -1.49657,-0.63684 -2.54736,-1.78314 -1.01894,-1.14631 -1.52841,-2.70657 -0.50947,-1.59209 -0.50947,-3.50261 0,-1.91051 0.54131,-3.50261 0.57316,-1.59209 1.5921,-2.7384 1.01894,-1.17815 2.48367,-1.81499 1.49657,-0.66868 3.31156,-0.66868 1.11447,0 2.22893,0.19105 1.11447,0.19105 2.13341,0.605 l -0.66868,2.51551 q -0.66868,-0.31842 -1.56025,-0.50947 -0.85973,-0.19106 -1.84683,-0.19106 -2.48367,0 -3.82103,1.56026 -1.30552,1.56025 -1.30552,4.55339 0,1.33736 0.28658,2.45183 0.31841,1.11447 0.95525,1.91051 0.66868,0.79605 1.68762,1.24184 1.01895,0.41394 2.48367,0.41394 1.17815,0 2.13341,-0.22289 0.95526,-0.22289 1.49657,-0.47763 l 0.41395,2.48367 q -0.25474,0.15921 -0.73237,0.31842 -0.47763,0.12737 -1.08262,0.22289 -0.605,0.12737 -1.30552,0.19106 -0.66868,0.0955 -1.30552,0.0955 z" />
        <path
           id="path5931"
           style=""
           d="m 231.40655,288.99104 q 0,-2.19709 0.63683,-3.82103 0.63684,-1.65578 1.68763,-2.7384 1.05078,-1.08263 2.41998,-1.62394 1.3692,-0.54131 2.80209,-0.54131 3.3434,0 5.12655,2.10156 1.78315,2.06973 1.78315,6.33654 0,0.19106 0,0.50948 0,0.28657 -0.0318,0.54131 l -11.33572,0 q 0.19105,2.57919 1.49657,3.91655 1.30552,1.33736 4.07577,1.33736 1.56025,0 2.61103,-0.25473 1.08263,-0.28658 1.62394,-0.54131 l 0.41395,2.48367 q -0.54132,0.28657 -1.91052,0.60499 -1.33736,0.31842 -3.05682,0.31842 -2.16525,0 -3.75735,-0.63684 -1.56025,-0.66868 -2.57919,-1.81499 -1.01894,-1.14631 -1.52842,-2.70656 -0.47762,-1.59209 -0.47762,-3.47077 z m 11.36756,-1.62394 q 0.0318,-2.00604 -1.01894,-3.27971 -1.01894,-1.30552 -2.83393,-1.30552 -1.01894,0 -1.81499,0.41394 -0.76421,0.38211 -1.30552,1.01894 -0.54131,0.63684 -0.85973,1.46473 -0.28658,0.82789 -0.3821,1.68762 l 8.21521,0 z" />
      </g>
    </g>
    <rect
       style="opacity:1;fill:#dd3b4b;fill-opacity:1;fill-rule:nonzero;stroke:none;stroke-width:0.94400579;stroke-linecap:round;stroke-linejoin:round;stroke-miterlimit:4;stroke-dasharray:none;stroke-opacity:0.21568627"
       id="rect4136-3-3"
       width="79.830917"
       height="33.022636"
       x="344.54425"
       y="268.56317"
       ry="3.8928702" />
    <g
       id="text4155-6"
       style="font-style:normal;font-variant:normal;font-weight:normal;font-stretch:normal;font-size:28.29764557px;line-height:125%;font-family:Ubuntu;-inkscape-font-specification:'Ubuntu, Normal';text-align:start;letter-spacing:0px;word-spacing:0px;writing-mode:lr-tb;text-anchor:start;fill:#000000;fill-opacity:1;stroke:none;stroke-width:1px;stroke-linecap:butt;stroke-linejoin:miter;stroke-opacity:1">
      <path
         id="path5934"
         style="fill:#ffffff;fill-opacity:1"
         d="m 351.84491,278.84526 q 1.61296,-0.62255 3.14104,-1.58467 1.52807,-0.99041 2.80146,-2.46189 l 1.86765,0 0,19.61027 -2.63168,0 0,-15.95988 q -0.33958,0.31128 -0.84893,0.65085 -0.48106,0.33957 -1.07531,0.65085 -0.56596,0.31127 -1.2168,0.59425 -0.62255,0.28297 -1.2168,0.48106 l -0.82063,-1.98084 z" />
      <path
         id="path5936"
         style="fill:#ffffff;fill-opacity:1"
         d="m 376.95774,282.80693 q -0.48106,-0.39617 -1.38658,-0.76404 -0.90553,-0.36786 -1.98084,-0.36786 -1.1319,0 -1.95254,0.42446 -0.79233,0.39617 -1.30169,1.13191 -0.50936,0.70744 -0.73574,1.69785 -0.22638,0.99042 -0.22638,2.12233 0,2.57508 1.2734,3.98997 1.27339,1.38658 3.39571,1.38658 1.07531,0 1.78276,-0.0849 0.73573,-0.11319 1.1319,-0.22638 l 0,-9.30993 z m 0,-9.90417 2.63168,-0.45277 0,21.53451 q -0.90552,0.25468 -2.3204,0.50936 -1.41489,0.25468 -3.25423,0.25468 -1.69786,0 -3.05615,-0.53766 -1.35829,-0.53765 -2.32041,-1.52807 -0.96212,-0.99042 -1.49977,-2.4053 -0.50936,-1.44318 -0.50936,-3.22593 0,-1.69786 0.42447,-3.11274 0.45276,-1.41489 1.30169,-2.4336 0.84893,-1.01872 2.06573,-1.58467 1.24509,-0.56595 2.82976,-0.56595 1.27339,0 2.23551,0.33957 0.99042,0.33957 1.47148,0.65085 l 0,-7.44228 z" />
      <path
         id="path5938"
         style="font-size:17.5px;fill:#ffffff;fill-opacity:1"
         d="m 392.87883,293.23647 q 0.5775,0 1.015,-0.0175 0.455,-0.035 0.7525,-0.105 l 0,-2.7125 q -0.175,-0.0875 -0.5775,-0.14 -0.385,-0.07 -0.945,-0.07 -0.3675,0 -0.7875,0.0525 -0.4025,0.0525 -0.7525,0.2275 -0.3325,0.1575 -0.56,0.455 -0.2275,0.28 -0.2275,0.7525 0,0.875 0.56,1.225 0.56,0.3325 1.5225,0.3325 z m -0.14,-8.155 q 0.98,0 1.645,0.2625 0.6825,0.245 1.085,0.7175 0.42,0.455 0.595,1.1025 0.175,0.63 0.175,1.4 l 0,5.6875 q -0.21,0.035 -0.595,0.105 -0.3675,0.0525 -0.84,0.105 -0.4725,0.0525 -1.0325,0.0875 -0.5425,0.0525 -1.085,0.0525 -0.77,0 -1.4175,-0.1575 -0.6475,-0.1575 -1.12,-0.49 -0.4725,-0.35 -0.735,-0.91 -0.2625,-0.56 -0.2625,-1.3475 0,-0.7525 0.2975,-1.295 0.315,-0.5425 0.84,-0.875 0.525,-0.3325 1.225,-0.49 0.7,-0.1575 1.47,-0.1575 0.245,0 0.5075,0.035 0.2625,0.0175 0.49,0.07 0.245,0.035 0.42,0.07 0.175,0.035 0.245,0.0525 l 0,-0.455 q 0,-0.4025 -0.0875,-0.7875 -0.0875,-0.4025 -0.315,-0.7 -0.2275,-0.315 -0.63,-0.49 -0.385,-0.1925 -1.015,-0.1925 -0.805,0 -1.4175,0.1225 -0.595,0.105 -0.8925,0.2275 l -0.1925,-1.3475 q 0.315,-0.14 1.05,-0.2625 0.735,-0.14 1.5925,-0.14 z" />
      <path
         id="path5940"
         style="font-size:17.5px;fill:#ffffff;fill-opacity:1"
         d="m 404.62981,293.49897 q -0.21,0.14 -0.8225,0.3675 -0.595,0.21 -1.4,0.21 -0.8225,0 -1.5575,-0.2625 -0.7175,-0.2625 -1.26,-0.805 -0.5425,-0.56 -0.8575,-1.3825 -0.315,-0.8225 -0.315,-1.96 0,-0.9975 0.2975,-1.82 0.2975,-0.84 0.8575,-1.435 0.5775,-0.6125 1.4,-0.945 0.8225,-0.35 1.855,-0.35 1.1375,0 1.9775,0.175 0.8575,0.1575 1.435,0.2975 l 0,8.12 q 0,2.1 -1.085,3.045 -1.085,0.945 -3.29,0.945 -0.8575,0 -1.6275,-0.14 -0.7525,-0.14 -1.3125,-0.3325 l 0.2975,-1.4175 q 0.49,0.1925 1.19,0.3325 0.7175,0.1575 1.4875,0.1575 1.4525,0 2.0825,-0.5775 0.6475,-0.5775 0.6475,-1.8375 l 0,-0.385 z m -0.0175,-6.755 q -0.245,-0.07 -0.665,-0.1225 -0.4025,-0.07 -1.1025,-0.07 -1.3125,0 -2.03,0.8575 -0.7,0.8575 -0.7,2.275 0,0.7875 0.1925,1.3475 0.21,0.56 0.5425,0.9275 0.35,0.3675 0.7875,0.5425 0.455,0.175 0.9275,0.175 0.6475,0 1.19,-0.175 0.5425,-0.1925 0.8575,-0.4375 l 0,-5.32 z" />
      <path
         id="path5942"
         style="font-size:17.5px;fill:#ffffff;fill-opacity:1"
         d="m 417.0745,289.85897 q 0,1.085 -0.315,1.96 -0.315,0.875 -0.8925,1.505 -0.56,0.63 -1.3475,0.98 -0.7875,0.3325 -1.715,0.3325 -0.9275,0 -1.715,-0.3325 -0.7875,-0.35 -1.365,-0.98 -0.56,-0.63 -0.875,-1.505 -0.315,-0.875 -0.315,-1.96 0,-1.0675 0.315,-1.9425 0.315,-0.8925 0.875,-1.5225 0.5775,-0.63 1.365,-0.9625 0.7875,-0.35 1.715,-0.35 0.9275,0 1.715,0.35 0.7875,0.3325 1.3475,0.9625 0.5775,0.63 0.8925,1.5225 0.315,0.875 0.315,1.9425 z m -1.6975,0 q 0,-1.54 -0.7,-2.4325 -0.6825,-0.91 -1.8725,-0.91 -1.19,0 -1.89,0.91 -0.6825,0.8925 -0.6825,2.4325 0,1.54 0.6825,2.45 0.7,0.8925 1.89,0.8925 1.19,0 1.8725,-0.8925 0.7,-0.91 0.7,-2.45 z" />
    </g>
  </g>
</svg>
