<?xml version="1.0" encoding="UTF-8" standalone="no"?>
<svg
   xmlns:dc="http://purl.org/dc/elements/1.1/"
   xmlns:cc="http://creativecommons.org/ns#"
   xmlns:rdf="http://www.w3.org/1999/02/22-rdf-syntax-ns#"
   xmlns:svg="http://www.w3.org/2000/svg"
   xmlns="http://www.w3.org/2000/svg"
   width="86.497108mm"
   height="43.72213mm"
   viewBox="0 0 306.48581 154.92093"
   id="svg2"
   version="1.1">
  <defs
     id="defs4" />
  <metadata
     id="metadata7">
    <rdf:RDF>
      <cc:Work
         rdf:about="">
        <dc:format>image/svg+xml</dc:format>
        <dc:type
           rdf:resource="http://purl.org/dc/dcmitype/StillImage" />
        <dc:title></dc:title>
      </cc:Work>
    </rdf:RDF>
  </metadata>
  <g
     id="layer1"
     transform="translate(-133.78573,-257.57649)">
    <rect
       style="opacity:1;fill:#28a745;fill-opacity:1;fill-rule:nonzero;stroke:#000000;stroke-width:0.88059664;stroke-linecap:round;stroke-linejoin:round;stroke-miterlimit:4;stroke-dasharray:none;stroke-opacity:0.21634617"
       id="rect4136"
       width="305.60522"
       height="54.115417"
       x="134.22603"
       y="258.01678"
       ry="6.2175207" />
    <g
       id="g4200">
      <rect
         ry="3.8928702"
         y="268.56317"
         x="145.65422"
         height="33.022636"
         width="110.5229"
         id="rect4136-3"
         style="opacity:1;fill:#f8f9fa;fill-opacity:1;fill-rule:nonzero;stroke:none;stroke-width:0.94400579;stroke-linecap:round;stroke-linejoin:round;stroke-miterlimit:4;stroke-dasharray:none;stroke-opacity:0.21568627" />
      <g
         id="text4155"
         style="font-style:normal;font-variant:normal;font-weight:normal;font-stretch:normal;font-size:31.84191513px;line-height:125%;font-family:Ubuntu;-inkscape-font-specification:'Ubuntu, Normal';text-align:start;letter-spacing:0px;word-spacing:0px;writing-mode:lr-tb;text-anchor:start;fill:#000000;fill-opacity:1;stroke:none;stroke-width:1px;stroke-linecap:butt;stroke-linejoin:miter;stroke-opacity:1">
        <path
           id="path5081"
           style=""
           d="m 167.59087,284.18291 q -0.54131,-0.44578 -1.56025,-0.85973 -1.01894,-0.41394 -2.22894,-0.41394 -1.27367,0 -2.19709,0.47763 -0.89157,0.44578 -1.46473,1.27367 -0.57315,0.79605 -0.82789,1.91052 -0.25473,1.11446 -0.25473,2.38814 0,2.89761 1.43288,4.48971 1.43289,1.56025 3.82103,1.56025 1.21,0 2.00605,-0.0955 0.82788,-0.12737 1.27367,-0.25474 l 0,-10.47599 z m 0,-11.14467 2.9613,-0.50947 0,24.2317 q -1.01894,0.28658 -2.61104,0.57315 -1.59209,0.28658 -3.66182,0.28658 -1.91051,0 -3.43892,-0.605 -1.52842,-0.60499 -2.61104,-1.71946 -1.08263,-1.11447 -1.68762,-2.70656 -0.57316,-1.62394 -0.57316,-3.62998 0,-1.91051 0.47763,-3.50261 0.50947,-1.5921 1.46473,-2.73841 0.95526,-1.1463 2.32446,-1.78314 1.40104,-0.63684 3.18419,-0.63684 1.43289,0 2.51551,0.3821 1.11447,0.38211 1.65578,0.73237 l 0,-8.37443 z" />
        <path
           id="path5083"
           style=""
           d="m 174.75033,288.99104 q 0,-2.19709 0.63684,-3.82103 0.63683,-1.65578 1.68762,-2.7384 1.05078,-1.08263 2.41998,-1.62394 1.36921,-0.54131 2.80209,-0.54131 3.3434,0 5.12655,2.10156 1.78315,2.06973 1.78315,6.33654 0,0.19106 0,0.50948 0,0.28657 -0.0318,0.54131 l -11.33573,0 q 0.19106,2.57919 1.49657,3.91655 1.30552,1.33736 4.07577,1.33736 1.56025,0 2.61104,-0.25473 1.08262,-0.28658 1.62393,-0.54131 l 0.41395,2.48367 q -0.54131,0.28657 -1.91052,0.60499 -1.33736,0.31842 -3.05682,0.31842 -2.16525,0 -3.75735,-0.63684 -1.56025,-0.66868 -2.57919,-1.81499 -1.01894,-1.14631 -1.52841,-2.70656 -0.47763,-1.59209 -0.47763,-3.47077 z m 11.36756,-1.62394 q 0.0318,-2.00604 -1.01894,-3.27971 -1.01894,-1.30552 -2.83393,-1.30552 -1.01894,0 -1.81499,0.41394 -0.76421,0.38211 -1.30552,1.01894 -0.54131,0.63684 -0.85973,1.46473 -0.28658,0.82789 -0.3821,1.68762 l 8.21521,0 z" />
        <path
           id="path5085"
           style=""
           d="m 206.38826,280.6803 q -1.24184,4.64892 -2.92946,8.91574 -1.65578,4.26682 -3.21603,7.64206 l -2.67472,0 q -1.56026,-3.37524 -3.24788,-7.64206 -1.65578,-4.26682 -2.89761,-8.91574 l 3.18419,0 q 0.3821,1.56026 0.89157,3.3434 0.54131,1.75131 1.11447,3.50261 0.605,1.71947 1.20999,3.34341 0.605,1.62393 1.14631,2.89761 0.54131,-1.27368 1.14631,-2.89761 0.605,-1.62394 1.17815,-3.34341 0.605,-1.7513 1.11447,-3.50261 0.54131,-1.78314 0.92341,-3.3434 l 3.05683,0 z" />
        <path
           id="path5087"
           style=""
           d="m 212.40488,297.2381 -2.96129,0 0,-16.5578 2.96129,0 0,16.5578 z m -1.49657,-19.55094 q -0.79604,0 -1.3692,-0.50947 -0.54131,-0.54131 -0.54131,-1.43288 0,-0.89158 0.54131,-1.40105 0.57316,-0.54131 1.3692,-0.54131 0.79605,0 1.33736,0.54131 0.57316,0.50947 0.57316,1.40105 0,0.89157 -0.57316,1.43288 -0.54131,0.50947 -1.33736,0.50947 z" />
        <path
           id="path5089"
           style=""
           d="m 224.72472,297.6202 q -2.00604,0 -3.53445,-0.63684 -1.49657,-0.63684 -2.54736,-1.78314 -1.01894,-1.14631 -1.52841,-2.70657 -0.50947,-1.59209 -0.50947,-3.50261 0,-1.91051 0.54131,-3.50261 0.57316,-1.59209 1.5921,-2.7384 1.01894,-1.17815 2.48367,-1.81499 1.49657,-0.66868 3.31156,-0.66868 1.11447,0 2.22893,0.19105 1.11447,0.19105 2.13341,0.605 l -0.66868,2.51551 q -0.66868,-0.31842 -1.56025,-0.50947 -0.85973,-0.19106 -1.84683,-0.19106 -2.48367,0 -3.82103,1.56026 -1.30552,1.56025 -1.30552,4.55339 0,1.33736 0.28658,2.45183 0.31841,1.11447 0.95525,1.91051 0.66868,0.79605 1.68762,1.24184 1.01895,0.41394 2.48367,0.41394 1.17815,0 2.13341,-0.22289 0.95526,-0.22289 1.49657,-0.47763 l 0.41395,2.48367 q -0.25474,0.15921 -0.73237,0.31842 -0.47763,0.12737 -1.08262,0.22289 -0.605,0.12737 -1.30552,0.19106 -0.66868,0.0955 -1.30552,0.0955 z" />
        <path
           id="path5091"
           style=""
           d="m 231.40655,288.99104 q 0,-2.19709 0.63683,-3.82103 0.63684,-1.65578 1.68763,-2.7384 1.05078,-1.08263 2.41998,-1.62394 1.3692,-0.54131 2.80209,-0.54131 3.3434,0 5.12655,2.10156 1.78315,2.06973 1.78315,6.33654 0,0.19106 0,0.50948 0,0.28657 -0.0318,0.54131 l -11.33572,0 q 0.19105,2.57919 1.49657,3.91655 1.30552,1.33736 4.07577,1.33736 1.56025,0 2.61103,-0.25473 1.08263,-0.28658 1.62394,-0.54131 l 0.41395,2.48367 q -0.54132,0.28657 -1.91052,0.60499 -1.33736,0.31842 -3.05682,0.31842 -2.16525,0 -3.75735,-0.63684 -1.56025,-0.66868 -2.57919,-1.81499 -1.01894,-1.14631 -1.52842,-2.70656 -0.47762,-1.59209 -0.47762,-3.47077 z m 11.36756,-1.62394 q 0.0318,-2.00604 -1.01894,-3.27971 -1.01894,-1.30552 -2.83393,-1.30552 -1.01894,0 -1.81499,0.41394 -0.76421,0.38211 -1.30552,1.01894 -0.54131,0.63684 -0.85973,1.46473 -0.28658,0.82789 -0.3821,1.68762 l 8.21521,0 z" />
      </g>
    </g>
    <g
       id="g4194"
       transform="translate(16.428571,-0.35714286)">
      <rect
         ry="3.8928702"
         y="269.2746"
         x="341.5986"
         height="33.022636"
         width="66.951477"
         id="rect4136-3-3"
         style="opacity:1;fill:#f8f9fa;fill-opacity:0.07977205;fill-rule:nonzero;stroke:none;stroke-width:0.94400579;stroke-linecap:round;stroke-linejoin:round;stroke-miterlimit:4;stroke-dasharray:none;stroke-opacity:0.21568627" />
      <g
         id="text4155-6"
         style="font-style:normal;font-variant:normal;font-weight:normal;font-stretch:normal;font-size:28.29764557px;line-height:125%;font-family:Ubuntu;-inkscape-font-specification:'Ubuntu, Normal';text-align:start;letter-spacing:0px;word-spacing:0px;writing-mode:lr-tb;text-anchor:start;fill:#000000;fill-opacity:1;stroke:none;stroke-width:1px;stroke-linecap:butt;stroke-linejoin:miter;stroke-opacity:1">
        <path
           id="path5094"
           style="fill:#ffffff;fill-opacity:1"
           d="m 349.19063,278.853 q 0.90553,-0.22638 2.4053,-0.48106 1.49978,-0.25468 3.45231,-0.25468 1.75446,0 2.91466,0.50936 1.1602,0.48106 1.83935,1.38658 0.70744,0.87723 0.99042,2.12233 0.28297,1.24509 0.28297,2.74487 l 0,8.26291 -2.63168,0 0,-7.69696 q 0,-1.35829 -0.19808,-2.32041 -0.16979,-0.96212 -0.59425,-1.55637 -0.42447,-0.59425 -1.13191,-0.84893 -0.70744,-0.28297 -1.75445,-0.28297 -0.42447,0 -0.87723,0.0283 -0.45276,0.0283 -0.87723,0.0849 -0.39616,0.0283 -0.73574,0.0849 -0.31127,0.0566 -0.45276,0.0849 l 0,12.42267 -2.63168,0 0,-14.29031 z" />
        <path
           id="path5096"
           style="fill:#ffffff;fill-opacity:1"
           d="m 378.42829,285.78592 q 0,1.75446 -0.50936,3.16934 -0.50936,1.41488 -1.44318,2.4336 -0.90552,1.01871 -2.17892,1.58466 -1.27339,0.53766 -2.77317,0.53766 -1.49977,0 -2.77317,-0.53766 -1.27339,-0.56595 -2.20721,-1.58466 -0.90553,-1.01872 -1.41488,-2.4336 -0.50936,-1.41488 -0.50936,-3.16934 0,-1.72615 0.50936,-3.14104 0.50935,-1.44318 1.41488,-2.46189 0.93382,-1.01872 2.20721,-1.55637 1.2734,-0.56595 2.77317,-0.56595 1.49978,0 2.77317,0.56595 1.2734,0.53765 2.17892,1.55637 0.93382,1.01871 1.44318,2.46189 0.50936,1.41489 0.50936,3.14104 z m -2.74487,0 q 0,-2.49019 -1.13191,-3.93337 -1.10361,-1.47148 -3.02785,-1.47148 -1.92424,0 -3.05614,1.47148 -1.10361,1.44318 -1.10361,3.93337 0,2.4902 1.10361,3.96167 1.1319,1.44318 3.05614,1.44318 1.92424,0 3.02785,-1.44318 1.13191,-1.47147 1.13191,-3.96167 z" />
        <path
           id="path5098"
           style="fill:#ffffff;fill-opacity:1"
           d="m 393.77047,293.14331 q -0.79233,-2.03743 -1.69785,-4.64081 -0.87723,-2.63168 -1.61297,-5.46145 -0.73574,2.82977 -1.61297,5.46145 -0.87722,2.60338 -1.66956,4.64081 l -2.29211,0 q -1.30169,-2.91466 -2.54678,-6.64995 -1.2451,-3.73529 -2.34871,-8.06483 l 2.82977,0 q 0.28297,1.32999 0.67914,2.88636 0.39617,1.55638 0.82063,3.11275 0.45276,1.55637 0.93382,2.99955 0.48106,1.44318 0.90553,2.51849 0.48106,-1.32999 0.93382,-2.80147 0.48106,-1.49978 0.90552,-2.99955 0.42447,-1.52807 0.79234,-2.97125 0.39617,-1.47148 0.67914,-2.74488 l 2.17892,0 q 0.25468,1.2734 0.62255,2.74488 0.36787,1.44318 0.79233,2.97125 0.42447,1.49977 0.87723,2.99955 0.48106,1.47148 0.96212,2.80147 0.42447,-1.07531 0.87723,-2.51849 0.48106,-1.44318 0.93382,-2.99955 0.45276,-1.55637 0.84893,-3.11275 0.39617,-1.55637 0.67914,-2.88636 l 2.71658,0 q -1.10361,4.32954 -2.34871,8.06483 -1.24509,3.73529 -2.54679,6.64995 l -2.29211,0 z" />
      </g>
    </g>
    <rect
       style="opacity:1;fill:#ffffff;fill-opacity:1;fill-rule:nonzero;stroke:#000000;stroke-width:1.1867255;stroke-linecap:round;stroke-linejoin:round;stroke-miterlimit:4;stroke-dasharray:none;stroke-opacity:0.21634617"
       id="rect4136-7"
       width="305.2991"
       height="98.379059"
       x="134.37909"
       y="313.52499"
       ry="5.9204025" />
    <rect
       style="opacity:0.98999999;fill:#efefef;fill-opacity:1;fill-rule:nonzero;stroke:none;stroke-width:1;stroke-linecap:round;stroke-linejoin:round;stroke-miterlimit:4;stroke-dasharray:none;stroke-opacity:0.21634617"
       id="rect6902"
       width="304.12729"
       height="31.785715"
       x="134.96872"
       y="314.0011"
       ry="6.2151837" />
    <g
       id="text4155-5"
       style="font-style:normal;font-variant:normal;font-weight:normal;font-stretch:normal;font-size:31.84191513px;line-height:125%;font-family:Ubuntu;-inkscape-font-specification:'Ubuntu, Normal';text-align:start;letter-spacing:0px;word-spacing:0px;writing-mode:lr-tb;text-anchor:start;fill:#000000;fill-opacity:1;stroke:none;stroke-width:1px;stroke-linecap:butt;stroke-linejoin:miter;stroke-opacity:1">
      <path
         id="path5101"
         style="font-size:16.25px;fill:#676767;fill-opacity:1"
         d="m 152.01385,333.68262 0,-12.35 1.51125,-0.26 0,4.3225 q 0.4225,-0.1625 0.89375,-0.24375 0.4875,-0.0975 0.95875,-0.0975 1.0075,0 1.67375,0.2925 0.66625,0.27625 1.05625,0.79625 0.40625,0.50375 0.56875,1.21875 0.1625,0.715 0.1625,1.57625 l 0,4.745 -1.51125,0 0,-4.42 q 0,-0.78 -0.11375,-1.3325 -0.0975,-0.5525 -0.34125,-0.89375 -0.24375,-0.34125 -0.65,-0.4875 -0.40625,-0.1625 -1.0075,-0.1625 -0.24375,0 -0.50375,0.0325 -0.26,0.0325 -0.50375,0.0812 -0.2275,0.0325 -0.4225,0.0813 -0.17875,0.0487 -0.26,0.0813 l 0,7.02 -1.51125,0 z" />
      <path
         id="path5103"
         style="font-size:16.25px;fill:#676767;fill-opacity:1"
         d="m 168.74018,329.45762 q 0,1.0075 -0.2925,1.82 -0.2925,0.8125 -0.82875,1.3975 -0.52,0.585 -1.25125,0.91 -0.73125,0.30875 -1.5925,0.30875 -0.86125,0 -1.5925,-0.30875 -0.73125,-0.325 -1.2675,-0.91 -0.52,-0.585 -0.8125,-1.3975 -0.2925,-0.8125 -0.2925,-1.82 0,-0.99125 0.2925,-1.80375 0.2925,-0.82875 0.8125,-1.41375 0.53625,-0.585 1.2675,-0.89375 0.73125,-0.325 1.5925,-0.325 0.86125,0 1.5925,0.325 0.73125,0.30875 1.25125,0.89375 0.53625,0.585 0.82875,1.41375 0.2925,0.8125 0.2925,1.80375 z m -1.57625,0 q 0,-1.43 -0.65,-2.25875 -0.63375,-0.845 -1.73875,-0.845 -1.105,0 -1.755,0.845 -0.63375,0.82875 -0.63375,2.25875 0,1.43 0.63375,2.275 0.65,0.82875 1.755,0.82875 1.105,0 1.73875,-0.82875 0.65,-0.845 0.65,-2.275 z" />
      <path
         id="path5105"
         style="font-size:16.25px;fill:#676767;fill-opacity:1"
         d="m 172.83264,332.59387 q 0.92625,0 1.365,-0.24375 0.455,-0.24375 0.455,-0.78 0,-0.5525 -0.43875,-0.8775 -0.43875,-0.325 -1.44625,-0.73125 -0.4875,-0.195 -0.9425,-0.39 -0.43875,-0.21125 -0.76375,-0.4875 -0.325,-0.27625 -0.52,-0.66625 -0.195,-0.39 -0.195,-0.95875 0,-1.12125 0.82875,-1.77125 0.82875,-0.66625 2.25875,-0.66625 0.3575,0 0.715,0.0487 0.3575,0.0325 0.66625,0.0975 0.30875,0.0487 0.53625,0.11375 0.24375,0.065 0.37375,0.11375 l -0.27625,1.3 q -0.24375,-0.13 -0.76375,-0.26 -0.52,-0.14625 -1.25125,-0.14625 -0.63375,0 -1.105,0.26 -0.47125,0.24375 -0.47125,0.78 0,0.27625 0.0975,0.4875 0.11375,0.21125 0.325,0.39 0.2275,0.1625 0.5525,0.30875 0.325,0.14625 0.78,0.30875 0.60125,0.2275 1.0725,0.455 0.47125,0.21125 0.79625,0.50375 0.34125,0.2925 0.52,0.715 0.17875,0.40625 0.17875,1.0075 0,1.17 -0.8775,1.77125 -0.86125,0.60125 -2.47,0.60125 -1.12125,0 -1.755,-0.195 -0.63375,-0.17875 -0.86125,-0.27625 l 0.27625,-1.3 q 0.26,0.0975 0.82875,0.2925 0.56875,0.195 1.51125,0.195 z" />
      <path
         id="path5107"
         style="font-size:16.25px;fill:#676767;fill-opacity:1"
         d="m 179.51647,325.23262 3.20125,0 0,1.2675 -3.20125,0 0,3.9 q 0,0.63375 0.0975,1.05625 0.0975,0.40625 0.2925,0.65 0.195,0.2275 0.4875,0.325 0.2925,0.0975 0.6825,0.0975 0.6825,0 1.08875,-0.14625 0.4225,-0.1625 0.585,-0.2275 l 0.2925,1.25125 q -0.2275,0.11375 -0.79625,0.27625 -0.56875,0.17875 -1.3,0.17875 -0.86125,0 -1.43,-0.21125 -0.5525,-0.2275 -0.89375,-0.66625 -0.34125,-0.43875 -0.4875,-1.0725 -0.13,-0.65 -0.13,-1.495 l 0,-7.54 1.51125,-0.26 0,2.61625 z" />
      <path
         id="path5109"
         style="font-size:16.25px;fill:#676767;fill-opacity:1"
         d="m 184.64081,325.47637 q 0.52,-0.13 1.38125,-0.27625 0.86125,-0.14625 1.9825,-0.14625 1.0075,0 1.67375,0.2925 0.66625,0.27625 1.05625,0.79625 0.40625,0.50375 0.56875,1.21875 0.1625,0.715 0.1625,1.57625 l 0,4.745 -1.51125,0 0,-4.42 q 0,-0.78 -0.11375,-1.3325 -0.0975,-0.5525 -0.34125,-0.89375 -0.24375,-0.34125 -0.65,-0.4875 -0.40625,-0.1625 -1.0075,-0.1625 -0.24375,0 -0.50375,0.0163 -0.26,0.0163 -0.50375,0.0487 -0.2275,0.0163 -0.4225,0.0487 -0.17875,0.0325 -0.26,0.0488 l 0,7.13375 -1.51125,0 0,-8.20625 z" />
      <path
         id="path5111"
         style="font-size:16.25px;fill:#676767;fill-opacity:1"
         d="m 196.83186,332.59387 q 0.53625,0 0.9425,-0.0162 0.4225,-0.0325 0.69875,-0.0975 l 0,-2.51875 q -0.1625,-0.0813 -0.53625,-0.13 -0.3575,-0.065 -0.8775,-0.065 -0.34125,0 -0.73125,0.0487 -0.37375,0.0488 -0.69875,0.21125 -0.30875,0.14625 -0.52,0.4225 -0.21125,0.26 -0.21125,0.69875 0,0.8125 0.52,1.1375 0.52,0.30875 1.41375,0.30875 z m -0.13,-7.5725 q 0.91,0 1.5275,0.24375 0.63375,0.2275 1.0075,0.66625 0.39,0.4225 0.5525,1.02375 0.1625,0.585 0.1625,1.3 l 0,5.28125 q -0.195,0.0325 -0.5525,0.0975 -0.34125,0.0487 -0.78,0.0975 -0.43875,0.0487 -0.95875,0.0812 -0.50375,0.0488 -1.0075,0.0488 -0.715,0 -1.31625,-0.14625 -0.60125,-0.14625 -1.04,-0.455 -0.43875,-0.325 -0.6825,-0.845 -0.24375,-0.52 -0.24375,-1.25125 0,-0.69875 0.27625,-1.2025 0.2925,-0.50375 0.78,-0.8125 0.4875,-0.30875 1.1375,-0.455 0.65,-0.14625 1.365,-0.14625 0.2275,0 0.47125,0.0325 0.24375,0.0162 0.455,0.065 0.2275,0.0325 0.39,0.065 0.1625,0.0325 0.2275,0.0487 l 0,-0.4225 q 0,-0.37375 -0.0812,-0.73125 -0.0813,-0.37375 -0.2925,-0.65 -0.21125,-0.2925 -0.585,-0.455 -0.3575,-0.17875 -0.9425,-0.17875 -0.7475,0 -1.31625,0.11375 -0.5525,0.0975 -0.82875,0.21125 l -0.17875,-1.25125 q 0.2925,-0.13 0.975,-0.24375 0.6825,-0.13 1.47875,-0.13 z" />
      <path
         id="path5113"
         style="font-size:16.25px;fill:#676767;fill-opacity:1"
         d="m 202.44598,325.47637 q 0.52,-0.13 1.365,-0.27625 0.86125,-0.14625 1.9825,-0.14625 0.8125,0 1.365,0.2275 0.5525,0.21125 0.92625,0.63375 0.11375,-0.0813 0.3575,-0.2275 0.24375,-0.14625 0.60125,-0.27625 0.3575,-0.14625 0.79625,-0.24375 0.43875,-0.11375 0.9425,-0.11375 0.975,0 1.5925,0.2925 0.6175,0.27625 0.95875,0.79625 0.3575,0.52 0.47125,1.235 0.13,0.715 0.13,1.56 l 0,4.745 -1.51125,0 0,-4.42 q 0,-0.7475 -0.0813,-1.28375 -0.065,-0.53625 -0.27625,-0.89375 -0.195,-0.3575 -0.5525,-0.52 -0.34125,-0.17875 -0.89375,-0.17875 -0.76375,0 -1.2675,0.21125 -0.4875,0.195 -0.66625,0.3575 0.13,0.4225 0.195,0.92625 0.065,0.50375 0.065,1.05625 l 0,4.745 -1.51125,0 0,-4.42 q 0,-0.7475 -0.0813,-1.28375 -0.0812,-0.53625 -0.2925,-0.89375 -0.195,-0.3575 -0.5525,-0.52 -0.34125,-0.17875 -0.8775,-0.17875 -0.2275,0 -0.4875,0.0163 -0.26,0.0163 -0.50375,0.0487 -0.2275,0.0163 -0.4225,0.0487 -0.195,0.0325 -0.26,0.0488 l 0,7.13375 -1.51125,0 0,-8.20625 z" />
      <path
         id="path5115"
         style="font-size:16.25px;fill:#676767;fill-opacity:1"
         d="m 215.97131,329.47387 q 0,-1.12125 0.325,-1.95 0.325,-0.845 0.86125,-1.3975 0.53625,-0.5525 1.235,-0.82875 0.69875,-0.27625 1.43,-0.27625 1.70625,0 2.61625,1.0725 0.91,1.05625 0.91,3.23375 0,0.0975 0,0.26 0,0.14625 -0.0162,0.27625 l -5.785,0 q 0.0975,1.31625 0.76375,1.99875 0.66625,0.6825 2.08,0.6825 0.79625,0 1.3325,-0.13 0.5525,-0.14625 0.82875,-0.27625 l 0.21125,1.2675 q -0.27625,0.14625 -0.975,0.30875 -0.6825,0.1625 -1.56,0.1625 -1.105,0 -1.9175,-0.325 -0.79625,-0.34125 -1.31625,-0.92625 -0.52,-0.585 -0.78,-1.38125 -0.24375,-0.8125 -0.24375,-1.77125 z m 5.80125,-0.82875 q 0.0163,-1.02375 -0.52,-1.67375 -0.52,-0.66625 -1.44625,-0.66625 -0.52,0 -0.92625,0.21125 -0.39,0.195 -0.66625,0.52 -0.27625,0.325 -0.43875,0.7475 -0.14625,0.4225 -0.195,0.86125 l 4.1925,0 z" />
    </g>
    <rect
       style="opacity:0.98999999;fill:#cacaca;fill-opacity:1;fill-rule:nonzero;stroke:none;stroke-width:1;stroke-linecap:round;stroke-linejoin:round;stroke-miterlimit:4;stroke-dasharray:none;stroke-opacity:0.21634617"
       id="rect7604"
       width="305.00293"
       height="1.2626985"
       x="134.19502"
       y="339.65723"
       ry="0" />
    <rect
       style="opacity:0.98999999;fill:#ffffff;fill-opacity:1;fill-rule:nonzero;stroke:none;stroke-width:1;stroke-linecap:round;stroke-linejoin:round;stroke-miterlimit:4;stroke-dasharray:none;stroke-opacity:0.21634617"
       id="rect7606"
       width="303.52084"
       height="5.4759874"
       x="135.32445"
       y="340.94604" />
    <rect
       style="opacity:0.98999999;fill:#cacaca;fill-opacity:1;fill-rule:nonzero;stroke:none;stroke-width:1;stroke-linecap:round;stroke-linejoin:round;stroke-miterlimit:4;stroke-dasharray:none;stroke-opacity:0.21634617"
       id="rect7604-1"
       width="305.00293"
       height="1.2626985"
       x="133.97406"
       y="374.69687"
       ry="0" />
    <g
       id="g7900"
       transform="translate(-32.460239,-6.5659916)">
      <g
         id="g7905"
         transform="translate(0,-0.25253814)">
        <rect
           style="opacity:1;fill:#28a745;fill-opacity:1;fill-rule:nonzero;stroke:none;stroke-width:0.94400579;stroke-linecap:round;stroke-linejoin:round;stroke-miterlimit:4;stroke-dasharray:none;stroke-opacity:0.21568627"
           id="rect4136-3-7"
           width="62.376312"
           height="14.898168"
           x="184.47409"
           y="357.50827"
           ry="3.0189469" />
        <g
           id="text4155-0"
           style="font-style:normal;font-variant:normal;font-weight:normal;font-stretch:normal;font-size:25.38692665px;line-height:125%;font-family:Ubuntu;-inkscape-font-specification:'Ubuntu, Normal';text-align:start;letter-spacing:0px;word-spacing:0px;writing-mode:lr-tb;text-anchor:start;fill:#000000;fill-opacity:1;stroke:none;stroke-width:1px;stroke-linecap:butt;stroke-linejoin:miter;stroke-opacity:1">
          <path
             id="path5118"
             style="font-size:11.25px;fill:#ffffff;fill-opacity:1"
             d="m 193.56883,363.2811 q 0.135,0 0.30375,0.0225 0.18,0.0112 0.34875,0.045 0.16875,0.0225 0.30375,0.0563 0.14625,0.0225 0.21375,0.045 l -0.18,0.91125 q -0.12375,-0.045 -0.41625,-0.10125 -0.28125,-0.0675 -0.73125,-0.0675 -0.2925,0 -0.585,0.0675 -0.28125,0.0563 -0.37125,0.0788 l 0,4.91625 -1.04625,0 0,-5.6025 q 0.37125,-0.135 0.9225,-0.2475 0.55125,-0.12375 1.2375,-0.12375 z" />
          <path
             id="path5120"
             style="font-size:11.25px;fill:#ffffff;fill-opacity:1"
             d="m 195.43317,366.3411 q 0,-0.77625 0.225,-1.35 0.225,-0.585 0.59625,-0.9675 0.37125,-0.3825 0.855,-0.57375 0.48375,-0.19125 0.99,-0.19125 1.18125,0 1.81125,0.7425 0.63,0.73125 0.63,2.23875 0,0.0675 0,0.18 0,0.10125 -0.0113,0.19125 l -4.005,0 q 0.0675,0.91125 0.52875,1.38375 0.46125,0.4725 1.44,0.4725 0.55125,0 0.9225,-0.09 0.3825,-0.10125 0.57375,-0.19125 l 0.14625,0.8775 q -0.19125,0.10125 -0.675,0.21375 -0.4725,0.1125 -1.08,0.1125 -0.765,0 -1.3275,-0.225 -0.55125,-0.23625 -0.91125,-0.64125 -0.36,-0.405 -0.54,-0.95625 -0.16875,-0.5625 -0.16875,-1.22625 z m 4.01625,-0.57375 q 0.0112,-0.70875 -0.36,-1.15875 -0.36,-0.46125 -1.00125,-0.46125 -0.36,0 -0.64125,0.14625 -0.27,0.135 -0.46125,0.36 -0.19125,0.225 -0.30375,0.5175 -0.10125,0.2925 -0.135,0.59625 l 2.9025,0 z" />
          <path
             id="path5122"
             style="font-size:11.25px;fill:#ffffff;fill-opacity:1"
             d="m 204.0236,368.5011 q 0.37125,0 0.6525,-0.0113 0.2925,-0.0225 0.48375,-0.0675 l 0,-1.74375 q -0.1125,-0.0563 -0.37125,-0.09 -0.2475,-0.045 -0.6075,-0.045 -0.23625,0 -0.50625,0.0337 -0.25875,0.0337 -0.48375,0.14625 -0.21375,0.10125 -0.36,0.2925 -0.14625,0.18 -0.14625,0.48375 0,0.5625 0.36,0.7875 0.36,0.21375 0.97875,0.21375 z m -0.09,-5.2425 q 0.63,0 1.0575,0.16875 0.43875,0.1575 0.6975,0.46125 0.27,0.2925 0.3825,0.70875 0.1125,0.405 0.1125,0.9 l 0,3.65625 q -0.135,0.0225 -0.3825,0.0675 -0.23625,0.0337 -0.54,0.0675 -0.30375,0.0337 -0.66375,0.0563 -0.34875,0.0337 -0.6975,0.0337 -0.495,0 -0.91125,-0.10125 -0.41625,-0.10125 -0.72,-0.315 -0.30375,-0.225 -0.4725,-0.585 -0.16875,-0.36 -0.16875,-0.86625 0,-0.48375 0.19125,-0.8325 0.2025,-0.34875 0.54,-0.5625 0.3375,-0.21375 0.7875,-0.315 0.45,-0.10125 0.945,-0.10125 0.1575,0 0.32625,0.0225 0.16875,0.0113 0.315,0.045 0.1575,0.0225 0.27,0.045 0.1125,0.0225 0.1575,0.0337 l 0,-0.2925 q 0,-0.25875 -0.0563,-0.50625 -0.0563,-0.25875 -0.2025,-0.45 -0.14625,-0.2025 -0.405,-0.315 -0.2475,-0.12375 -0.6525,-0.12375 -0.5175,0 -0.91125,0.0788 -0.3825,0.0675 -0.57375,0.14625 l -0.12375,-0.86625 q 0.2025,-0.09 0.675,-0.16875 0.4725,-0.09 1.02375,-0.09 z" />
          <path
             id="path5124"
             style="font-size:11.25px;fill:#ffffff;fill-opacity:1"
             d="m 210.4528,369.38985 q -0.70875,0 -1.24875,-0.225 -0.52875,-0.225 -0.9,-0.63 -0.36,-0.405 -0.54,-0.95625 -0.18,-0.5625 -0.18,-1.2375 0,-0.675 0.19125,-1.2375 0.2025,-0.5625 0.5625,-0.9675 0.36,-0.41625 0.8775,-0.64125 0.52875,-0.23625 1.17,-0.23625 0.39375,0 0.7875,0.0675 0.39375,0.0675 0.75375,0.21375 l -0.23625,0.88875 q -0.23625,-0.1125 -0.55125,-0.18 -0.30375,-0.0675 -0.6525,-0.0675 -0.8775,0 -1.35,0.55125 -0.46125,0.55125 -0.46125,1.60875 0,0.4725 0.10125,0.86625 0.1125,0.39375 0.3375,0.675 0.23625,0.28125 0.59625,0.43875 0.36,0.14625 0.8775,0.14625 0.41625,0 0.75375,-0.0788 0.3375,-0.0788 0.52875,-0.16875 l 0.14625,0.8775 q -0.09,0.0562 -0.25875,0.1125 -0.16875,0.045 -0.3825,0.0787 -0.21375,0.045 -0.46125,0.0675 -0.23625,0.0337 -0.46125,0.0337 z" />
          <path
             id="path5126"
             style="font-size:11.25px;fill:#ffffff;fill-opacity:1"
             d="m 213.13979,369.25485 0,-8.55 1.04625,-0.18 0,2.9925 q 0.2925,-0.1125 0.61875,-0.16875 0.3375,-0.0675 0.66375,-0.0675 0.6975,0 1.15875,0.2025 0.46125,0.19125 0.73125,0.55125 0.28125,0.34875 0.39375,0.84375 0.1125,0.495 0.1125,1.09125 l 0,3.285 -1.04625,0 0,-3.06 q 0,-0.54 -0.0788,-0.9225 -0.0675,-0.3825 -0.23625,-0.61875 -0.16875,-0.23625 -0.45,-0.3375 -0.28125,-0.1125 -0.6975,-0.1125 -0.16875,0 -0.34875,0.0225 -0.18,0.0225 -0.34875,0.0563 -0.1575,0.0225 -0.2925,0.0562 -0.12375,0.0337 -0.18,0.0563 l 0,4.86 -1.04625,0 z" />
          <path
             id="path5128"
             style="font-size:11.25px;fill:#ffffff;fill-opacity:1"
             d="m 221.53581,368.5011 q 0.37125,0 0.6525,-0.0113 0.2925,-0.0225 0.48375,-0.0675 l 0,-1.74375 q -0.1125,-0.0563 -0.37125,-0.09 -0.2475,-0.045 -0.6075,-0.045 -0.23625,0 -0.50625,0.0337 -0.25875,0.0337 -0.48375,0.14625 -0.21375,0.10125 -0.36,0.2925 -0.14625,0.18 -0.14625,0.48375 0,0.5625 0.36,0.7875 0.36,0.21375 0.97875,0.21375 z m -0.09,-5.2425 q 0.63,0 1.0575,0.16875 0.43875,0.1575 0.6975,0.46125 0.27,0.2925 0.3825,0.70875 0.1125,0.405 0.1125,0.9 l 0,3.65625 q -0.135,0.0225 -0.3825,0.0675 -0.23625,0.0337 -0.54,0.0675 -0.30375,0.0337 -0.66375,0.0563 -0.34875,0.0337 -0.6975,0.0337 -0.495,0 -0.91125,-0.10125 -0.41625,-0.10125 -0.72,-0.315 -0.30375,-0.225 -0.4725,-0.585 -0.16875,-0.36 -0.16875,-0.86625 0,-0.48375 0.19125,-0.8325 0.2025,-0.34875 0.54,-0.5625 0.3375,-0.21375 0.7875,-0.315 0.45,-0.10125 0.945,-0.10125 0.1575,0 0.32625,0.0225 0.16875,0.0113 0.315,0.045 0.1575,0.0225 0.27,0.045 0.1125,0.0225 0.1575,0.0337 l 0,-0.2925 q 0,-0.25875 -0.0562,-0.50625 -0.0563,-0.25875 -0.2025,-0.45 -0.14625,-0.2025 -0.405,-0.315 -0.2475,-0.12375 -0.6525,-0.12375 -0.5175,0 -0.91125,0.0788 -0.3825,0.0675 -0.57375,0.14625 l -0.12375,-0.86625 q 0.2025,-0.09 0.675,-0.16875 0.4725,-0.09 1.02375,-0.09 z" />
          <path
             id="path5130"
             style="font-size:11.25px;fill:#ffffff;fill-opacity:1"
             d="m 226.46876,363.6636 q 0.19125,-0.12375 0.57375,-0.25875 0.39375,-0.135 0.9,-0.135 0.63,0 1.11375,0.225 0.495,0.225 0.8325,0.63 0.3375,0.405 0.50625,0.9675 0.18,0.5625 0.18,1.2375 0,0.70875 -0.21375,1.2825 -0.2025,0.5625 -0.585,0.95625 -0.3825,0.39375 -0.9225,0.6075 -0.54,0.21375 -1.215,0.21375 -0.73125,0 -1.29375,-0.10125 -0.5625,-0.10125 -0.9225,-0.2025 l 0,-8.38125 1.04625,-0.18 0,3.13875 z m 0,4.68 q 0.1575,0.045 0.43875,0.09 0.2925,0.0337 0.72,0.0337 0.84375,0 1.35,-0.55125 0.50625,-0.5625 0.50625,-1.58625 0,-0.45 -0.09,-0.84375 -0.09,-0.39375 -0.2925,-0.675 -0.2025,-0.2925 -0.52875,-0.45 -0.315,-0.16875 -0.765,-0.16875 -0.4275,0 -0.7875,0.14625 -0.36,0.14625 -0.55125,0.30375 l 0,3.70125 z" />
          <path
             id="path5132"
             style="font-size:11.25px;fill:#ffffff;fill-opacity:1"
             d="m 233.81325,369.36735 q -0.9675,-0.0225 -1.3725,-0.41625 -0.405,-0.39375 -0.405,-1.22625 l 0,-7.02 1.04625,-0.18 0,7.03125 q 0,0.25875 0.045,0.4275 0.045,0.16875 0.14625,0.27 0.10125,0.10125 0.27,0.1575 0.16875,0.045 0.41625,0.0788 l -0.14625,0.8775 z" />
          <path
             id="path5134"
             style="font-size:11.25px;fill:#ffffff;fill-opacity:1"
             d="m 234.80817,366.3411 q 0,-0.77625 0.225,-1.35 0.225,-0.585 0.59625,-0.9675 0.37125,-0.3825 0.855,-0.57375 0.48375,-0.19125 0.99,-0.19125 1.18125,0 1.81125,0.7425 0.63,0.73125 0.63,2.23875 0,0.0675 0,0.18 0,0.10125 -0.0113,0.19125 l -4.005,0 q 0.0675,0.91125 0.52875,1.38375 0.46125,0.4725 1.44,0.4725 0.55125,0 0.9225,-0.09 0.3825,-0.10125 0.57375,-0.19125 l 0.14625,0.8775 q -0.19125,0.10125 -0.675,0.21375 -0.4725,0.1125 -1.08,0.1125 -0.765,0 -1.3275,-0.225 -0.55125,-0.23625 -0.91125,-0.64125 -0.36,-0.405 -0.54,-0.95625 -0.16875,-0.5625 -0.16875,-1.22625 z m 4.01625,-0.57375 q 0.0112,-0.70875 -0.36,-1.15875 -0.36,-0.46125 -1.00125,-0.46125 -0.36,0 -0.64125,0.14625 -0.27,0.135 -0.46125,0.36 -0.19125,0.225 -0.30375,0.5175 -0.10125,0.2925 -0.135,0.59625 l 2.9025,0 z" />
        </g>
      </g>
    </g>
    <g
       id="text4155-5-3"
       style="font-style:normal;font-variant:normal;font-weight:normal;font-stretch:normal;font-size:31.84191513px;line-height:125%;font-family:Ubuntu;-inkscape-font-specification:'Ubuntu, Normal';text-align:start;letter-spacing:0px;word-spacing:0px;writing-mode:lr-tb;text-anchor:start;fill:#000000;fill-opacity:1;stroke:none;stroke-width:1px;stroke-linecap:butt;stroke-linejoin:miter;stroke-opacity:1">
      <path
         id="path5137"
         style="font-size:13.75px"
         d="m 237.53711,354.77694 2.70875,0 0,1.0725 -2.70875,0 0,3.3 q 0,0.53625 0.0825,0.89375 0.0825,0.34375 0.2475,0.55 0.165,0.1925 0.4125,0.275 0.2475,0.0825 0.5775,0.0825 0.5775,0 0.92125,-0.12375 0.3575,-0.1375 0.495,-0.1925 l 0.2475,1.05875 q -0.1925,0.0962 -0.67375,0.23375 -0.48125,0.15125 -1.1,0.15125 -0.72875,0 -1.21,-0.17875 -0.4675,-0.1925 -0.75625,-0.56375 -0.28875,-0.37125 -0.4125,-0.9075 -0.11,-0.55 -0.11,-1.265 l 0,-6.38 1.27875,-0.22 0,2.21375 z" />
      <path
         id="path5139"
         style="font-size:13.75px"
         d="m 243.15184,361.92694 -1.27875,0 0,-7.15 1.27875,0 0,7.15 z m -0.64625,-8.4425 q -0.34375,0 -0.59125,-0.22 -0.23375,-0.23375 -0.23375,-0.61875 0,-0.385 0.23375,-0.605 0.2475,-0.23375 0.59125,-0.23375 0.34375,0 0.5775,0.23375 0.2475,0.22 0.2475,0.605 0,0.385 -0.2475,0.61875 -0.23375,0.22 -0.5775,0.22 z" />
      <path
         id="path5141"
         style="font-size:13.75px"
         d="m 245.3643,354.98319 q 0.44,-0.11 1.155,-0.23375 0.72875,-0.12375 1.6775,-0.12375 0.6875,0 1.155,0.1925 0.4675,0.17875 0.78375,0.53625 0.0962,-0.0688 0.3025,-0.1925 0.20625,-0.12375 0.50875,-0.23375 0.3025,-0.12375 0.67375,-0.20625 0.37125,-0.0962 0.7975,-0.0962 0.825,0 1.3475,0.2475 0.5225,0.23375 0.81125,0.67375 0.3025,0.44 0.39875,1.045 0.11,0.605 0.11,1.32 l 0,4.015 -1.27875,0 0,-3.74 q 0,-0.6325 -0.0688,-1.08625 -0.055,-0.45375 -0.23375,-0.75625 -0.165,-0.3025 -0.4675,-0.44 -0.28875,-0.15125 -0.75625,-0.15125 -0.64625,0 -1.0725,0.17875 -0.4125,0.165 -0.56375,0.3025 0.11,0.3575 0.165,0.78375 0.055,0.42625 0.055,0.89375 l 0,4.015 -1.27875,0 0,-3.74 q 0,-0.6325 -0.0688,-1.08625 -0.0687,-0.45375 -0.2475,-0.75625 -0.165,-0.3025 -0.4675,-0.44 -0.28875,-0.15125 -0.7425,-0.15125 -0.1925,0 -0.4125,0.0137 -0.22,0.0138 -0.42625,0.0413 -0.1925,0.0137 -0.3575,0.0412 -0.165,0.0275 -0.22,0.0412 l 0,6.03625 -1.27875,0 0,-6.94375 z" />
      <path
         id="path5143"
         style="font-size:13.75px"
         d="m 256.80881,358.36569 q 0,-0.94875 0.275,-1.65 0.275,-0.715 0.72875,-1.1825 0.45375,-0.4675 1.045,-0.70125 0.59125,-0.23375 1.21,-0.23375 1.44375,0 2.21375,0.9075 0.77,0.89375 0.77,2.73625 0,0.0825 0,0.22 0,0.12375 -0.0138,0.23375 l -4.895,0 q 0.0825,1.11375 0.64625,1.69125 0.56375,0.5775 1.76,0.5775 0.67375,0 1.1275,-0.11 0.4675,-0.12375 0.70125,-0.23375 l 0.17875,1.0725 q -0.23375,0.12375 -0.825,0.26125 -0.5775,0.1375 -1.32,0.1375 -0.935,0 -1.6225,-0.275 -0.67375,-0.28875 -1.11375,-0.78375 -0.44,-0.495 -0.66,-1.16875 -0.20625,-0.6875 -0.20625,-1.49875 z m 4.90875,-0.70125 q 0.0138,-0.86625 -0.44,-1.41625 -0.44,-0.56375 -1.22375,-0.56375 -0.44,0 -0.78375,0.17875 -0.33,0.165 -0.56375,0.44 -0.23375,0.275 -0.37125,0.6325 -0.12375,0.3575 -0.165,0.72875 l 3.5475,0 z" />
      <path
         id="path5145"
         style="font-size:13.75px"
         d="m 266.55197,361.00569 q 0.78375,0 1.155,-0.20625 0.385,-0.20625 0.385,-0.66 0,-0.4675 -0.37125,-0.7425 -0.37125,-0.275 -1.22375,-0.61875 -0.4125,-0.165 -0.7975,-0.33 -0.37125,-0.17875 -0.64625,-0.4125 -0.275,-0.23375 -0.44,-0.56375 -0.165,-0.33 -0.165,-0.81125 0,-0.94875 0.70125,-1.49875 0.70125,-0.56375 1.91125,-0.56375 0.3025,0 0.605,0.0412 0.3025,0.0275 0.56375,0.0825 0.26125,0.0412 0.45375,0.0962 0.20625,0.055 0.31625,0.0962 l -0.23375,1.1 q -0.20625,-0.11 -0.64625,-0.22 -0.44,-0.12375 -1.05875,-0.12375 -0.53625,0 -0.935,0.22 -0.39875,0.20625 -0.39875,0.66 0,0.23375 0.0825,0.4125 0.0962,0.17875 0.275,0.33 0.1925,0.1375 0.4675,0.26125 0.275,0.12375 0.66,0.26125 0.50875,0.1925 0.9075,0.385 0.39875,0.17875 0.67375,0.42625 0.28875,0.2475 0.44,0.605 0.15125,0.34375 0.15125,0.8525 0,0.99 -0.7425,1.49875 -0.72875,0.50875 -2.09,0.50875 -0.94875,0 -1.485,-0.165 -0.53625,-0.15125 -0.72875,-0.23375 l 0.23375,-1.1 q 0.22,0.0825 0.70125,0.2475 0.48125,0.165 1.27875,0.165 z" />
      <path
         id="path5147"
         style="font-size:13.75px"
         d="m 272.20752,354.77694 2.70875,0 0,1.0725 -2.70875,0 0,3.3 q 0,0.53625 0.0825,0.89375 0.0825,0.34375 0.2475,0.55 0.165,0.1925 0.4125,0.275 0.2475,0.0825 0.5775,0.0825 0.5775,0 0.92125,-0.12375 0.3575,-0.1375 0.495,-0.1925 l 0.2475,1.05875 q -0.1925,0.0962 -0.67375,0.23375 -0.48125,0.15125 -1.1,0.15125 -0.72875,0 -1.21,-0.17875 -0.4675,-0.1925 -0.75625,-0.56375 -0.28875,-0.37125 -0.4125,-0.9075 -0.11,-0.55 -0.11,-1.265 l 0,-6.38 1.27875,-0.22 0,2.21375 z" />
      <path
         id="path5149"
         style="font-size:13.75px"
         d="m 278.9635,361.00569 q 0.45375,0 0.7975,-0.0138 0.3575,-0.0275 0.59125,-0.0825 l 0,-2.13125 q -0.1375,-0.0688 -0.45375,-0.11 -0.3025,-0.055 -0.7425,-0.055 -0.28875,0 -0.61875,0.0413 -0.31625,0.0412 -0.59125,0.17875 -0.26125,0.12375 -0.44,0.3575 -0.17875,0.22 -0.17875,0.59125 0,0.6875 0.44,0.9625 0.44,0.26125 1.19625,0.26125 z m -0.11,-6.4075 q 0.77,0 1.2925,0.20625 0.53625,0.1925 0.8525,0.56375 0.33,0.3575 0.4675,0.86625 0.1375,0.495 0.1375,1.1 l 0,4.46875 q -0.165,0.0275 -0.4675,0.0825 -0.28875,0.0412 -0.66,0.0825 -0.37125,0.0412 -0.81125,0.0688 -0.42625,0.0412 -0.8525,0.0412 -0.605,0 -1.11375,-0.12375 -0.50875,-0.12375 -0.88,-0.385 -0.37125,-0.275 -0.5775,-0.715 -0.20625,-0.44 -0.20625,-1.05875 0,-0.59125 0.23375,-1.0175 0.2475,-0.42625 0.66,-0.6875 0.4125,-0.26125 0.9625,-0.385 0.55,-0.12375 1.155,-0.12375 0.1925,0 0.39875,0.0275 0.20625,0.0138 0.385,0.055 0.1925,0.0275 0.33,0.055 0.1375,0.0275 0.1925,0.0412 l 0,-0.3575 q 0,-0.31625 -0.0688,-0.61875 -0.0688,-0.31625 -0.2475,-0.55 -0.17875,-0.2475 -0.495,-0.385 -0.3025,-0.15125 -0.7975,-0.15125 -0.6325,0 -1.11375,0.0962 -0.4675,0.0825 -0.70125,0.17875 l -0.15125,-1.05875 q 0.2475,-0.11 0.825,-0.20625 0.5775,-0.11 1.25125,-0.11 z" />
      <path
         id="path5151"
         style="font-size:13.75px"
         d="m 283.71391,354.98319 q 0.44,-0.11 1.155,-0.23375 0.72875,-0.12375 1.6775,-0.12375 0.6875,0 1.155,0.1925 0.4675,0.17875 0.78375,0.53625 0.0962,-0.0688 0.3025,-0.1925 0.20625,-0.12375 0.50875,-0.23375 0.3025,-0.12375 0.67375,-0.20625 0.37125,-0.0962 0.7975,-0.0962 0.825,0 1.3475,0.2475 0.5225,0.23375 0.81125,0.67375 0.3025,0.44 0.39875,1.045 0.11,0.605 0.11,1.32 l 0,4.015 -1.27875,0 0,-3.74 q 0,-0.6325 -0.0687,-1.08625 -0.055,-0.45375 -0.23375,-0.75625 -0.165,-0.3025 -0.4675,-0.44 -0.28875,-0.15125 -0.75625,-0.15125 -0.64625,0 -1.0725,0.17875 -0.4125,0.165 -0.56375,0.3025 0.11,0.3575 0.165,0.78375 0.055,0.42625 0.055,0.89375 l 0,4.015 -1.27875,0 0,-3.74 q 0,-0.6325 -0.0688,-1.08625 -0.0687,-0.45375 -0.2475,-0.75625 -0.165,-0.3025 -0.4675,-0.44 -0.28875,-0.15125 -0.7425,-0.15125 -0.1925,0 -0.4125,0.0137 -0.22,0.0138 -0.42625,0.0413 -0.1925,0.0137 -0.3575,0.0412 -0.165,0.0275 -0.22,0.0412 l 0,6.03625 -1.27875,0 0,-6.94375 z" />
      <path
         id="path5153"
         style="font-size:13.75px"
         d="m 300.52092,358.36569 q 0,-1.25125 -0.61875,-1.925 -0.61875,-0.67375 -1.65,-0.67375 -0.5775,0 -0.9075,0.0413 -0.31625,0.0412 -0.50875,0.0962 l 0,4.51 q 0.23375,0.1925 0.67375,0.37125 0.44,0.17875 0.9625,0.17875 0.55,0 0.935,-0.1925 0.39875,-0.20625 0.64625,-0.55 0.2475,-0.3575 0.3575,-0.825 0.11,-0.48125 0.11,-1.03125 z m 1.33375,0 q 0,0.81125 -0.22,1.49875 -0.20625,0.6875 -0.61875,1.1825 -0.4125,0.495 -1.0175,0.77 -0.59125,0.275 -1.36125,0.275 -0.61875,0 -1.1,-0.165 -0.4675,-0.165 -0.70125,-0.31625 l 0,2.86 -1.27875,0 0,-9.47375 q 0.45375,-0.11 1.1275,-0.23375 0.6875,-0.1375 1.58125,-0.1375 0.825,0 1.485,0.26125 0.66,0.26125 1.1275,0.7425 0.4675,0.48125 0.715,1.1825 0.26125,0.6875 0.26125,1.55375 z" />
    </g>
    <g
       id="g7998"
       transform="translate(-2.0618762,-5.3571428)">
      <g
         id="text4155-5-3-6"
         style="font-style:normal;font-variant:normal;font-weight:normal;font-stretch:normal;font-size:31.84191513px;line-height:125%;font-family:Ubuntu;-inkscape-font-specification:'Ubuntu, Normal';text-align:start;letter-spacing:0px;word-spacing:0px;writing-mode:lr-tb;text-anchor:start;fill:#000000;fill-opacity:1;stroke:none;stroke-width:1px;stroke-linecap:butt;stroke-linejoin:miter;stroke-opacity:1">
        <path
           id="path5156"
           style="font-size:13.75px"
           d="m 155.54698,403.34921 -1.27875,0 0,-7.15 1.27875,0 0,7.15 z m -0.64625,-8.4425 q -0.34375,0 -0.59125,-0.22 -0.23375,-0.23375 -0.23375,-0.61875 0,-0.385 0.23375,-0.605 0.2475,-0.23375 0.59125,-0.23375 0.34375,0 0.5775,0.23375 0.2475,0.22 0.2475,0.605 0,0.385 -0.2475,0.61875 -0.23375,0.22 -0.5775,0.22 z" />
        <path
           id="path5158"
           style="font-size:13.75px"
           d="m 157.75944,396.40546 q 0.44,-0.11 1.16875,-0.23375 0.72875,-0.12375 1.6775,-0.12375 0.8525,0 1.41625,0.2475 0.56375,0.23375 0.89375,0.67375 0.34375,0.42625 0.48125,1.03125 0.1375,0.605 0.1375,1.33375 l 0,4.015 -1.27875,0 0,-3.74 q 0,-0.66 -0.0962,-1.1275 -0.0825,-0.4675 -0.28875,-0.75625 -0.20625,-0.28875 -0.55,-0.4125 -0.34375,-0.1375 -0.8525,-0.1375 -0.20625,0 -0.42625,0.0138 -0.22,0.0138 -0.42625,0.0412 -0.1925,0.0138 -0.3575,0.0412 -0.15125,0.0275 -0.22,0.0412 l 0,6.03625 -1.27875,0 0,-6.94375 z" />
        <path
           id="path5160"
           style="font-size:13.75px"
           d="m 166.8512,396.19921 2.70875,0 0,1.0725 -2.70875,0 0,3.3 q 0,0.53625 0.0825,0.89375 0.0825,0.34375 0.2475,0.55 0.165,0.1925 0.4125,0.275 0.2475,0.0825 0.5775,0.0825 0.5775,0 0.92125,-0.12375 0.3575,-0.1375 0.495,-0.1925 l 0.2475,1.05875 q -0.1925,0.0962 -0.67375,0.23375 -0.48125,0.15125 -1.1,0.15125 -0.72875,0 -1.21,-0.17875 -0.4675,-0.1925 -0.75625,-0.56375 -0.28875,-0.37125 -0.4125,-0.9075 -0.11,-0.55 -0.11,-1.265 l 0,-6.38 1.27875,-0.22 0,2.21375 z" />
        <path
           id="path5162"
           style="font-size:13.75px"
           d="m 170.65415,399.78796 q 0,-0.94875 0.275,-1.65 0.275,-0.715 0.72875,-1.1825 0.45375,-0.4675 1.045,-0.70125 0.59125,-0.23375 1.21,-0.23375 1.44375,0 2.21375,0.9075 0.77,0.89375 0.77,2.73625 0,0.0825 0,0.22 0,0.12375 -0.0137,0.23375 l -4.895,0 q 0.0825,1.11375 0.64625,1.69125 0.56375,0.5775 1.76,0.5775 0.67375,0 1.1275,-0.11 0.4675,-0.12375 0.70125,-0.23375 l 0.17875,1.0725 q -0.23375,0.12375 -0.825,0.26125 -0.5775,0.1375 -1.32,0.1375 -0.935,0 -1.6225,-0.275 -0.67375,-0.28875 -1.11375,-0.78375 -0.44,-0.495 -0.66,-1.16875 -0.20625,-0.6875 -0.20625,-1.49875 z m 4.90875,-0.70125 q 0.0137,-0.86625 -0.44,-1.41625 -0.44,-0.56375 -1.22375,-0.56375 -0.44,0 -0.78375,0.17875 -0.33,0.165 -0.56375,0.44 -0.23375,0.275 -0.37125,0.6325 -0.12375,0.3575 -0.165,0.72875 l 3.5475,0 z" />
        <path
           id="path5164"
           style="font-size:13.75px"
           d="m 181.37356,396.04796 q 0.165,0 0.37125,0.0275 0.22,0.0137 0.42625,0.055 0.20625,0.0275 0.37125,0.0687 0.17875,0.0275 0.26125,0.055 l -0.22,1.11375 q -0.15125,-0.055 -0.50875,-0.12375 -0.34375,-0.0825 -0.89375,-0.0825 -0.3575,0 -0.715,0.0825 -0.34375,0.0687 -0.45375,0.0962 l 0,6.00875 -1.27875,0 0,-6.8475 q 0.45375,-0.165 1.1275,-0.3025 0.67375,-0.15125 1.5125,-0.15125 z" />
        <path
           id="path5166"
           style="font-size:13.75px"
           d="m 186.84219,392.67921 q 0.56375,0 0.9625,0.0825 0.4125,0.0825 0.5775,0.15125 l -0.23375,1.1 q -0.165,-0.0825 -0.4675,-0.15125 -0.3025,-0.0825 -0.7425,-0.0825 -0.89375,0 -1.25125,0.495 -0.3575,0.48125 -0.3575,1.30625 l 0,0.61875 2.75,0 0,1.0725 -2.75,0 0,6.0775 -1.27875,0 0,-7.79625 q 0,-1.375 0.67375,-2.1175 0.67375,-0.75625 2.1175,-0.75625 z" />
        <path
           id="path5168"
           style="font-size:13.75px"
           d="m 191.78833,402.42796 q 0.45375,0 0.7975,-0.0137 0.3575,-0.0275 0.59125,-0.0825 l 0,-2.13125 q -0.1375,-0.0688 -0.45375,-0.11 -0.3025,-0.055 -0.7425,-0.055 -0.28875,0 -0.61875,0.0412 -0.31625,0.0412 -0.59125,0.17875 -0.26125,0.12375 -0.44,0.3575 -0.17875,0.22 -0.17875,0.59125 0,0.6875 0.44,0.9625 0.44,0.26125 1.19625,0.26125 z m -0.11,-6.4075 q 0.77,0 1.2925,0.20625 0.53625,0.1925 0.8525,0.56375 0.33,0.3575 0.4675,0.86625 0.1375,0.495 0.1375,1.1 l 0,4.46875 q -0.165,0.0275 -0.4675,0.0825 -0.28875,0.0413 -0.66,0.0825 -0.37125,0.0412 -0.81125,0.0687 -0.42625,0.0412 -0.8525,0.0412 -0.605,0 -1.11375,-0.12375 -0.50875,-0.12375 -0.88,-0.385 -0.37125,-0.275 -0.5775,-0.715 -0.20625,-0.44 -0.20625,-1.05875 0,-0.59125 0.23375,-1.0175 0.2475,-0.42625 0.66,-0.6875 0.4125,-0.26125 0.9625,-0.385 0.55,-0.12375 1.155,-0.12375 0.1925,0 0.39875,0.0275 0.20625,0.0138 0.385,0.055 0.1925,0.0275 0.33,0.055 0.1375,0.0275 0.1925,0.0412 l 0,-0.3575 q 0,-0.31625 -0.0687,-0.61875 -0.0687,-0.31625 -0.2475,-0.55 -0.17875,-0.2475 -0.495,-0.385 -0.3025,-0.15125 -0.7975,-0.15125 -0.6325,0 -1.11375,0.0962 -0.4675,0.0825 -0.70125,0.17875 l -0.15125,-1.05875 q 0.2475,-0.11 0.825,-0.20625 0.5775,-0.11 1.25125,-0.11 z" />
        <path
           id="path5170"
           style="font-size:13.75px"
           d="m 199.64624,403.51421 q -0.86625,0 -1.52625,-0.275 -0.64625,-0.275 -1.1,-0.77 -0.44,-0.495 -0.66,-1.16875 -0.22,-0.6875 -0.22,-1.5125 0,-0.825 0.23375,-1.5125 0.2475,-0.6875 0.6875,-1.1825 0.44,-0.50875 1.0725,-0.78375 0.64625,-0.28875 1.43,-0.28875 0.48125,0 0.9625,0.0825 0.48125,0.0825 0.92125,0.26125 l -0.28875,1.08625 q -0.28875,-0.1375 -0.67375,-0.22 -0.37125,-0.0825 -0.7975,-0.0825 -1.0725,0 -1.65,0.67375 -0.56375,0.67375 -0.56375,1.96625 0,0.5775 0.12375,1.05875 0.1375,0.48125 0.4125,0.825 0.28875,0.34375 0.72875,0.53625 0.44,0.17875 1.0725,0.17875 0.50875,0 0.92125,-0.0962 0.4125,-0.0962 0.64625,-0.20625 l 0.17875,1.0725 q -0.11,0.0688 -0.31625,0.1375 -0.20625,0.055 -0.4675,0.0962 -0.26125,0.055 -0.56375,0.0825 -0.28875,0.0412 -0.56375,0.0412 z" />
        <path
           id="path5172"
           style="font-size:13.75px"
           d="m 202.53159,399.78796 q 0,-0.94875 0.275,-1.65 0.275,-0.715 0.72875,-1.1825 0.45375,-0.4675 1.045,-0.70125 0.59125,-0.23375 1.21,-0.23375 1.44375,0 2.21375,0.9075 0.77,0.89375 0.77,2.73625 0,0.0825 0,0.22 0,0.12375 -0.0137,0.23375 l -4.895,0 q 0.0825,1.11375 0.64625,1.69125 0.56375,0.5775 1.76,0.5775 0.67375,0 1.1275,-0.11 0.4675,-0.12375 0.70125,-0.23375 l 0.17875,1.0725 q -0.23375,0.12375 -0.825,0.26125 -0.5775,0.1375 -1.32,0.1375 -0.935,0 -1.6225,-0.275 -0.67375,-0.28875 -1.11375,-0.78375 -0.44,-0.495 -0.66,-1.16875 -0.20625,-0.6875 -0.20625,-1.49875 z m 4.90875,-0.70125 q 0.0138,-0.86625 -0.44,-1.41625 -0.44,-0.56375 -1.22375,-0.56375 -0.44,0 -0.78375,0.17875 -0.33,0.165 -0.56375,0.44 -0.23375,0.275 -0.37125,0.6325 -0.12375,0.3575 -0.165,0.72875 l 3.5475,0 z" />
      </g>
      <g
         id="text4155-5-3-6-6"
         style="font-style:normal;font-variant:normal;font-weight:normal;font-stretch:normal;font-size:31.84191513px;line-height:125%;font-family:Ubuntu;-inkscape-font-specification:'Ubuntu, Normal';text-align:start;letter-spacing:0px;word-spacing:0px;writing-mode:lr-tb;text-anchor:start;fill:#000000;fill-opacity:1;stroke:none;stroke-width:1px;stroke-linecap:butt;stroke-linejoin:miter;stroke-opacity:1">
        <path
           id="path5175"
           style="font-size:13.75px"
           d="m 239.96488,393.82046 1.33375,0 0,9.52875 -1.33375,0 0,-9.52875 z" />
        <path
           id="path5177"
           style="font-size:13.75px"
           d="m 246.20093,393.72421 q 2.0075,0 3.08,0.77 1.08625,0.75625 1.08625,2.26875 0,0.825 -0.3025,1.41625 -0.28875,0.5775 -0.8525,0.94875 -0.55,0.3575 -1.3475,0.5225 -0.7975,0.165 -1.80125,0.165 l -1.05875,0 0,3.53375 -1.33375,0 0,-9.39125 q 0.56375,-0.1375 1.25125,-0.17875 0.70125,-0.055 1.27875,-0.055 z m 0.11,1.16875 q -0.8525,0 -1.30625,0.0412 l 0,3.74 1.00375,0 q 0.6875,0 1.2375,-0.0825 0.55,-0.0962 0.92125,-0.3025 0.385,-0.22 0.59125,-0.59125 0.20625,-0.37125 0.20625,-0.94875 0,-0.55 -0.22,-0.9075 -0.20625,-0.3575 -0.5775,-0.56375 -0.3575,-0.22 -0.83875,-0.3025 -0.48125,-0.0825 -1.0175,-0.0825 z" />
        <path
           id="path5179"
           style="font-size:13.75px"
           d="m 257.52943,402.42796 q 0.45375,0 0.7975,-0.0137 0.3575,-0.0275 0.59125,-0.0825 l 0,-2.13125 q -0.1375,-0.0688 -0.45375,-0.11 -0.3025,-0.055 -0.7425,-0.055 -0.28875,0 -0.61875,0.0412 -0.31625,0.0412 -0.59125,0.17875 -0.26125,0.12375 -0.44,0.3575 -0.17875,0.22 -0.17875,0.59125 0,0.6875 0.44,0.9625 0.44,0.26125 1.19625,0.26125 z m -0.11,-6.4075 q 0.77,0 1.2925,0.20625 0.53625,0.1925 0.8525,0.56375 0.33,0.3575 0.4675,0.86625 0.1375,0.495 0.1375,1.1 l 0,4.46875 q -0.165,0.0275 -0.4675,0.0825 -0.28875,0.0413 -0.66,0.0825 -0.37125,0.0412 -0.81125,0.0687 -0.42625,0.0412 -0.8525,0.0412 -0.605,0 -1.11375,-0.12375 -0.50875,-0.12375 -0.88,-0.385 -0.37125,-0.275 -0.5775,-0.715 -0.20625,-0.44 -0.20625,-1.05875 0,-0.59125 0.23375,-1.0175 0.2475,-0.42625 0.66,-0.6875 0.4125,-0.26125 0.9625,-0.385 0.55,-0.12375 1.155,-0.12375 0.1925,0 0.39875,0.0275 0.20625,0.0138 0.385,0.055 0.1925,0.0275 0.33,0.055 0.1375,0.0275 0.1925,0.0412 l 0,-0.3575 q 0,-0.31625 -0.0688,-0.61875 -0.0687,-0.31625 -0.2475,-0.55 -0.17875,-0.2475 -0.495,-0.385 -0.3025,-0.15125 -0.7975,-0.15125 -0.6325,0 -1.11375,0.0962 -0.4675,0.0825 -0.70125,0.17875 l -0.15125,-1.05875 q 0.2475,-0.11 0.825,-0.20625 0.5775,-0.11 1.25125,-0.11 z" />
        <path
           id="path5181"
           style="font-size:13.75px"
           d="m 266.89984,397.71171 q -0.23375,-0.1925 -0.67375,-0.37125 -0.44,-0.17875 -0.9625,-0.17875 -0.55,0 -0.94875,0.20625 -0.385,0.1925 -0.6325,0.55 -0.2475,0.34375 -0.3575,0.825 -0.11,0.48125 -0.11,1.03125 0,1.25125 0.61875,1.93875 0.61875,0.67375 1.65,0.67375 0.5225,0 0.86625,-0.0412 0.3575,-0.055 0.55,-0.11 l 0,-4.52375 z m 0,-4.8125 1.27875,-0.22 0,10.46375 q -0.44,0.12375 -1.1275,0.2475 -0.6875,0.12375 -1.58125,0.12375 -0.825,0 -1.485,-0.26125 -0.66,-0.26125 -1.1275,-0.7425 -0.4675,-0.48125 -0.72875,-1.16875 -0.2475,-0.70125 -0.2475,-1.5675 0,-0.825 0.20625,-1.5125 0.22,-0.6875 0.6325,-1.1825 0.4125,-0.495 1.00375,-0.77 0.605,-0.275 1.375,-0.275 0.61875,0 1.08625,0.165 0.48125,0.165 0.715,0.31625 l 0,-3.61625 z" />
        <path
           id="path5183"
           style="font-size:13.75px"
           d="m 275.01019,397.71171 q -0.23375,-0.1925 -0.67375,-0.37125 -0.44,-0.17875 -0.9625,-0.17875 -0.55,0 -0.94875,0.20625 -0.385,0.1925 -0.6325,0.55 -0.2475,0.34375 -0.3575,0.825 -0.11,0.48125 -0.11,1.03125 0,1.25125 0.61875,1.93875 0.61875,0.67375 1.65,0.67375 0.5225,0 0.86625,-0.0412 0.3575,-0.055 0.55,-0.11 l 0,-4.52375 z m 0,-4.8125 1.27875,-0.22 0,10.46375 q -0.44,0.12375 -1.1275,0.2475 -0.6875,0.12375 -1.58125,0.12375 -0.825,0 -1.485,-0.26125 -0.66,-0.26125 -1.1275,-0.7425 -0.4675,-0.48125 -0.72875,-1.16875 -0.2475,-0.70125 -0.2475,-1.5675 0,-0.825 0.20625,-1.5125 0.22,-0.6875 0.6325,-1.1825 0.4125,-0.495 1.00375,-0.77 0.605,-0.275 1.375,-0.275 0.61875,0 1.08625,0.165 0.48125,0.165 0.715,0.31625 l 0,-3.61625 z" />
        <path
           id="path5185"
           style="font-size:13.75px"
           d="m 281.14054,396.04796 q 0.165,0 0.37125,0.0275 0.22,0.0137 0.42625,0.055 0.20625,0.0275 0.37125,0.0687 0.17875,0.0275 0.26125,0.055 l -0.22,1.11375 q -0.15125,-0.055 -0.50875,-0.12375 -0.34375,-0.0825 -0.89375,-0.0825 -0.3575,0 -0.715,0.0825 -0.34375,0.0687 -0.45375,0.0962 l 0,6.00875 -1.27875,0 0,-6.8475 q 0.45375,-0.165 1.1275,-0.3025 0.67375,-0.15125 1.5125,-0.15125 z" />
        <path
           id="path5187"
           style="font-size:13.75px"
           d="m 283.41918,399.78796 q 0,-0.94875 0.275,-1.65 0.275,-0.715 0.72875,-1.1825 0.45375,-0.4675 1.045,-0.70125 0.59125,-0.23375 1.21,-0.23375 1.44375,0 2.21375,0.9075 0.77,0.89375 0.77,2.73625 0,0.0825 0,0.22 0,0.12375 -0.0138,0.23375 l -4.895,0 q 0.0825,1.11375 0.64625,1.69125 0.56375,0.5775 1.76,0.5775 0.67375,0 1.1275,-0.11 0.4675,-0.12375 0.70125,-0.23375 l 0.17875,1.0725 q -0.23375,0.12375 -0.825,0.26125 -0.5775,0.1375 -1.32,0.1375 -0.935,0 -1.6225,-0.275 -0.67375,-0.28875 -1.11375,-0.78375 -0.44,-0.495 -0.66,-1.16875 -0.20625,-0.6875 -0.20625,-1.49875 z m 4.90875,-0.70125 q 0.0138,-0.86625 -0.44,-1.41625 -0.44,-0.56375 -1.22375,-0.56375 -0.44,0 -0.78375,0.17875 -0.33,0.165 -0.56375,0.44 -0.23375,0.275 -0.37125,0.6325 -0.12375,0.3575 -0.165,0.72875 l 3.5475,0 z" />
        <path
           id="path5189"
           style="font-size:13.75px"
           d="m 293.16234,402.42796 q 0.78375,0 1.155,-0.20625 0.385,-0.20625 0.385,-0.66 0,-0.4675 -0.37125,-0.7425 -0.37125,-0.275 -1.22375,-0.61875 -0.4125,-0.165 -0.7975,-0.33 -0.37125,-0.17875 -0.64625,-0.4125 -0.275,-0.23375 -0.44,-0.56375 -0.165,-0.33 -0.165,-0.81125 0,-0.94875 0.70125,-1.49875 0.70125,-0.56375 1.91125,-0.56375 0.3025,0 0.605,0.0412 0.3025,0.0275 0.56375,0.0825 0.26125,0.0412 0.45375,0.0962 0.20625,0.055 0.31625,0.0962 l -0.23375,1.1 q -0.20625,-0.11 -0.64625,-0.22 -0.44,-0.12375 -1.05875,-0.12375 -0.53625,0 -0.935,0.22 -0.39875,0.20625 -0.39875,0.66 0,0.23375 0.0825,0.4125 0.0962,0.17875 0.275,0.33 0.1925,0.1375 0.4675,0.26125 0.275,0.12375 0.66,0.26125 0.50875,0.1925 0.9075,0.385 0.39875,0.17875 0.67375,0.42625 0.28875,0.2475 0.44,0.605 0.15125,0.34375 0.15125,0.8525 0,0.99 -0.7425,1.49875 -0.72875,0.50875 -2.09,0.50875 -0.94875,0 -1.485,-0.165 -0.53625,-0.15125 -0.72875,-0.23375 l 0.23375,-1.1 q 0.22,0.0825 0.70125,0.2475 0.48125,0.165 1.27875,0.165 z" />
        <path
           id="path5191"
           style="font-size:13.75px"
           d="m 299.28539,402.42796 q 0.78375,0 1.155,-0.20625 0.385,-0.20625 0.385,-0.66 0,-0.4675 -0.37125,-0.7425 -0.37125,-0.275 -1.22375,-0.61875 -0.4125,-0.165 -0.7975,-0.33 -0.37125,-0.17875 -0.64625,-0.4125 -0.275,-0.23375 -0.44,-0.56375 -0.165,-0.33 -0.165,-0.81125 0,-0.94875 0.70125,-1.49875 0.70125,-0.56375 1.91125,-0.56375 0.3025,0 0.605,0.0412 0.3025,0.0275 0.56375,0.0825 0.26125,0.0412 0.45375,0.0962 0.20625,0.055 0.31625,0.0962 l -0.23375,1.1 q -0.20625,-0.11 -0.64625,-0.22 -0.44,-0.12375 -1.05875,-0.12375 -0.53625,0 -0.935,0.22 -0.39875,0.20625 -0.39875,0.66 0,0.23375 0.0825,0.4125 0.0962,0.17875 0.275,0.33 0.1925,0.1375 0.4675,0.26125 0.275,0.12375 0.66,0.26125 0.50875,0.1925 0.9075,0.385 0.39875,0.17875 0.67375,0.42625 0.28875,0.2475 0.44,0.605 0.15125,0.34375 0.15125,0.8525 0,0.99 -0.7425,1.49875 -0.72875,0.50875 -2.09,0.50875 -0.94875,0 -1.485,-0.165 -0.53625,-0.15125 -0.72875,-0.23375 l 0.23375,-1.1 q 0.22,0.0825 0.70125,0.2475 0.48125,0.165 1.27875,0.165 z" />
      </g>
      <g
         id="text4155-5-3-6-6-7"
         style="font-style:normal;font-variant:normal;font-weight:normal;font-stretch:normal;font-size:31.84191513px;line-height:125%;font-family:Ubuntu;-inkscape-font-specification:'Ubuntu, Normal';text-align:start;letter-spacing:0px;word-spacing:0px;writing-mode:lr-tb;text-anchor:start;fill:#000000;fill-opacity:1;stroke:none;stroke-width:1px;stroke-linecap:butt;stroke-linejoin:miter;stroke-opacity:1">
        <path
           id="path5194"
           style="font-size:13.75px"
           d="m 338.25352,402.00858 q -0.1375,-0.33 -0.37125,-0.83875 -0.22,-0.50875 -0.48125,-1.1 -0.26125,-0.59125 -0.56375,-1.21 -0.28875,-0.6325 -0.55,-1.1825 -0.26125,-0.56375 -0.495,-1.00375 -0.22,-0.44 -0.3575,-0.67375 -0.15125,1.6225 -0.2475,3.52 -0.0962,1.88375 -0.165,3.80875 l -1.30625,0 q 0.055,-1.2375 0.12375,-2.48875 0.0688,-1.265 0.15125,-2.475 0.0962,-1.22375 0.1925,-2.37875 0.11,-1.155 0.23375,-2.18625 l 1.16875,0 q 0.37125,0.605 0.7975,1.43 0.42625,0.825 0.8525,1.7325 0.42625,0.89375 0.825,1.80125 0.39875,0.89375 0.72875,1.63625 0.33,-0.7425 0.72875,-1.63625 0.39875,-0.9075 0.825,-1.80125 0.42625,-0.9075 0.8525,-1.7325 0.42625,-0.825 0.7975,-1.43 l 1.16875,0 q 0.4675,4.60625 0.70125,9.52875 l -1.30625,0 q -0.0688,-1.925 -0.165,-3.80875 -0.0962,-1.8975 -0.2475,-3.52 -0.1375,0.23375 -0.37125,0.67375 -0.22,0.44 -0.48125,1.00375 -0.26125,0.55 -0.56375,1.1825 -0.28875,0.61875 -0.55,1.21 -0.26125,0.59125 -0.495,1.1 -0.22,0.50875 -0.3575,0.83875 l -1.0725,0 z" />
        <path
           id="path5196"
           style="font-size:13.75px"
           d="m 352.32106,403.32858 q -0.23375,-0.61875 -0.44,-1.21 -0.20625,-0.605 -0.42625,-1.22375 l -4.3175,0 -0.86625,2.43375 -1.38875,0 q 0.55,-1.5125 1.03125,-2.79125 0.48125,-1.2925 0.935,-2.4475 0.4675,-1.155 0.92125,-2.2 0.45375,-1.05875 0.94875,-2.09 l 1.22375,0 q 0.495,1.03125 0.94875,2.09 0.45375,1.045 0.9075,2.2 0.4675,1.155 0.94875,2.4475 0.48125,1.27875 1.03125,2.79125 l -1.4575,0 z m -1.25125,-3.53375 q -0.44,-1.19625 -0.88,-2.31 -0.42625,-1.1275 -0.89375,-2.15875 -0.48125,1.03125 -0.92125,2.15875 -0.42625,1.11375 -0.8525,2.31 l 3.5475,0 z" />
        <path
           id="path5198"
           style="font-size:13.75px"
           d="m 358.88776,403.53483 q -1.00375,0 -1.82875,-0.33 -0.825,-0.33 -1.41625,-0.9625 -0.59125,-0.6325 -0.92125,-1.55375 -0.31625,-0.935 -0.31625,-2.13125 0,-1.19625 0.3575,-2.1175 0.37125,-0.935 0.99,-1.5675 0.61875,-0.6325 1.44375,-0.9625 0.825,-0.33 1.76,-0.33 0.59125,0 1.05875,0.0825 0.48125,0.0825 0.825,0.1925 0.3575,0.11 0.5775,0.22 0.22,0.11 0.3025,0.165 l -0.385,1.1 q -0.12375,-0.0825 -0.3575,-0.17875 -0.23375,-0.0963 -0.53625,-0.1925 -0.28875,-0.0962 -0.64625,-0.15125 -0.34375,-0.0688 -0.70125,-0.0688 -0.75625,0 -1.36125,0.26125 -0.605,0.26125 -1.03125,0.75625 -0.42625,0.495 -0.66,1.21 -0.22,0.70125 -0.22,1.58125 0,0.8525 0.1925,1.55375 0.20625,0.70125 0.605,1.21 0.39875,0.495 0.99,0.77 0.605,0.275 1.4025,0.275 0.92125,0 1.52625,-0.1925 0.605,-0.1925 0.9075,-0.34375 l 0.34375,1.1 q -0.0962,0.0688 -0.34375,0.17875 -0.2475,0.0962 -0.61875,0.1925 -0.37125,0.0962 -0.86625,0.165 -0.495,0.0688 -1.0725,0.0688 z" />
        <path
           id="path5200"
           style="font-size:13.75px"
           d="m 368.80989,402.40733 q 0.45375,0 0.7975,-0.0138 0.3575,-0.0275 0.59125,-0.0825 l 0,-2.13125 q -0.1375,-0.0687 -0.45375,-0.11 -0.3025,-0.055 -0.7425,-0.055 -0.28875,0 -0.61875,0.0412 -0.31625,0.0412 -0.59125,0.17875 -0.26125,0.12375 -0.44,0.3575 -0.17875,0.22 -0.17875,0.59125 0,0.6875 0.44,0.9625 0.44,0.26125 1.19625,0.26125 z m -0.11,-6.4075 q 0.77,0 1.2925,0.20625 0.53625,0.1925 0.8525,0.56375 0.33,0.3575 0.4675,0.86625 0.1375,0.495 0.1375,1.1 l 0,4.46875 q -0.165,0.0275 -0.4675,0.0825 -0.28875,0.0412 -0.66,0.0825 -0.37125,0.0413 -0.81125,0.0688 -0.42625,0.0412 -0.8525,0.0412 -0.605,0 -1.11375,-0.12375 -0.50875,-0.12375 -0.88,-0.385 -0.37125,-0.275 -0.5775,-0.715 -0.20625,-0.44 -0.20625,-1.05875 0,-0.59125 0.23375,-1.0175 0.2475,-0.42625 0.66,-0.6875 0.4125,-0.26125 0.9625,-0.385 0.55,-0.12375 1.155,-0.12375 0.1925,0 0.39875,0.0275 0.20625,0.0138 0.385,0.055 0.1925,0.0275 0.33,0.055 0.1375,0.0275 0.1925,0.0412 l 0,-0.3575 q 0,-0.31625 -0.0688,-0.61875 -0.0687,-0.31625 -0.2475,-0.55 -0.17875,-0.2475 -0.495,-0.385 -0.3025,-0.15125 -0.7975,-0.15125 -0.6325,0 -1.11375,0.0962 -0.4675,0.0825 -0.70125,0.17875 l -0.15125,-1.05875 q 0.2475,-0.11 0.825,-0.20625 0.5775,-0.11 1.25125,-0.11 z" />
        <path
           id="path5202"
           style="font-size:13.75px"
           d="m 378.1803,397.69108 q -0.23375,-0.1925 -0.67375,-0.37125 -0.44,-0.17875 -0.9625,-0.17875 -0.55,0 -0.94875,0.20625 -0.385,0.1925 -0.6325,0.55 -0.2475,0.34375 -0.3575,0.825 -0.11,0.48125 -0.11,1.03125 0,1.25125 0.61875,1.93875 0.61875,0.67375 1.65,0.67375 0.5225,0 0.86625,-0.0412 0.3575,-0.055 0.55,-0.11 l 0,-4.52375 z m 0,-4.8125 1.27875,-0.22 0,10.46375 q -0.44,0.12375 -1.1275,0.2475 -0.6875,0.12375 -1.58125,0.12375 -0.825,0 -1.485,-0.26125 -0.66,-0.26125 -1.1275,-0.7425 -0.4675,-0.48125 -0.72875,-1.16875 -0.2475,-0.70125 -0.2475,-1.5675 0,-0.825 0.20625,-1.5125 0.22,-0.6875 0.6325,-1.1825 0.4125,-0.495 1.00375,-0.77 0.605,-0.275 1.375,-0.275 0.61875,0 1.08625,0.165 0.48125,0.165 0.715,0.31625 l 0,-3.61625 z" />
        <path
           id="path5204"
           style="font-size:13.75px"
           d="m 386.29065,397.69108 q -0.23375,-0.1925 -0.67375,-0.37125 -0.44,-0.17875 -0.9625,-0.17875 -0.55,0 -0.94875,0.20625 -0.385,0.1925 -0.6325,0.55 -0.2475,0.34375 -0.3575,0.825 -0.11,0.48125 -0.11,1.03125 0,1.25125 0.61875,1.93875 0.61875,0.67375 1.65,0.67375 0.5225,0 0.86625,-0.0412 0.3575,-0.055 0.55,-0.11 l 0,-4.52375 z m 0,-4.8125 1.27875,-0.22 0,10.46375 q -0.44,0.12375 -1.1275,0.2475 -0.6875,0.12375 -1.58125,0.12375 -0.825,0 -1.485,-0.26125 -0.66,-0.26125 -1.1275,-0.7425 -0.4675,-0.48125 -0.72875,-1.16875 -0.2475,-0.70125 -0.2475,-1.5675 0,-0.825 0.20625,-1.5125 0.22,-0.6875 0.6325,-1.1825 0.4125,-0.495 1.00375,-0.77 0.605,-0.275 1.375,-0.275 0.61875,0 1.08625,0.165 0.48125,0.165 0.715,0.31625 l 0,-3.61625 z" />
        <path
           id="path5206"
           style="font-size:13.75px"
           d="m 392.421,396.02733 q 0.165,0 0.37125,0.0275 0.22,0.0138 0.42625,0.055 0.20625,0.0275 0.37125,0.0688 0.17875,0.0275 0.26125,0.055 l -0.22,1.11375 q -0.15125,-0.055 -0.50875,-0.12375 -0.34375,-0.0825 -0.89375,-0.0825 -0.3575,0 -0.715,0.0825 -0.34375,0.0687 -0.45375,0.0962 l 0,6.00875 -1.27875,0 0,-6.8475 q 0.45375,-0.165 1.1275,-0.3025 0.67375,-0.15125 1.5125,-0.15125 z" />
        <path
           id="path5208"
           style="font-size:13.75px"
           d="m 394.69963,399.76733 q 0,-0.94875 0.275,-1.65 0.275,-0.715 0.72875,-1.1825 0.45375,-0.4675 1.045,-0.70125 0.59125,-0.23375 1.21,-0.23375 1.44375,0 2.21375,0.9075 0.77,0.89375 0.77,2.73625 0,0.0825 0,0.22 0,0.12375 -0.0138,0.23375 l -4.895,0 q 0.0825,1.11375 0.64625,1.69125 0.56375,0.5775 1.76,0.5775 0.67375,0 1.1275,-0.11 0.4675,-0.12375 0.70125,-0.23375 l 0.17875,1.0725 q -0.23375,0.12375 -0.825,0.26125 -0.5775,0.1375 -1.32,0.1375 -0.935,0 -1.6225,-0.275 -0.67375,-0.28875 -1.11375,-0.78375 -0.44,-0.495 -0.66,-1.16875 -0.20625,-0.6875 -0.20625,-1.49875 z m 4.90875,-0.70125 q 0.0138,-0.86625 -0.44,-1.41625 -0.44,-0.56375 -1.22375,-0.56375 -0.44,0 -0.78375,0.17875 -0.33,0.165 -0.56375,0.44 -0.23375,0.275 -0.37125,0.6325 -0.12375,0.3575 -0.165,0.72875 l 3.5475,0 z" />
        <path
           id="path5210"
           style="font-size:13.75px"
           d="m 404.4428,402.40733 q 0.78375,0 1.155,-0.20625 0.385,-0.20625 0.385,-0.66 0,-0.4675 -0.37125,-0.7425 -0.37125,-0.275 -1.22375,-0.61875 -0.4125,-0.165 -0.7975,-0.33 -0.37125,-0.17875 -0.64625,-0.4125 -0.275,-0.23375 -0.44,-0.56375 -0.165,-0.33 -0.165,-0.81125 0,-0.94875 0.70125,-1.49875 0.70125,-0.56375 1.91125,-0.56375 0.3025,0 0.605,0.0413 0.3025,0.0275 0.56375,0.0825 0.26125,0.0412 0.45375,0.0962 0.20625,0.055 0.31625,0.0962 l -0.23375,1.1 q -0.20625,-0.11 -0.64625,-0.22 -0.44,-0.12375 -1.05875,-0.12375 -0.53625,0 -0.935,0.22 -0.39875,0.20625 -0.39875,0.66 0,0.23375 0.0825,0.4125 0.0962,0.17875 0.275,0.33 0.1925,0.1375 0.4675,0.26125 0.275,0.12375 0.66,0.26125 0.50875,0.1925 0.9075,0.385 0.39875,0.17875 0.67375,0.42625 0.28875,0.2475 0.44,0.605 0.15125,0.34375 0.15125,0.8525 0,0.99 -0.7425,1.49875 -0.72875,0.50875 -2.09,0.50875 -0.94875,0 -1.485,-0.165 -0.53625,-0.15125 -0.72875,-0.23375 l 0.23375,-1.1 q 0.22,0.0825 0.70125,0.2475 0.48125,0.165 1.27875,0.165 z" />
        <path
           id="path5212"
           style="font-size:13.75px"
           d="m 410.56584,402.40733 q 0.78375,0 1.155,-0.20625 0.385,-0.20625 0.385,-0.66 0,-0.4675 -0.37125,-0.7425 -0.37125,-0.275 -1.22375,-0.61875 -0.4125,-0.165 -0.7975,-0.33 -0.37125,-0.17875 -0.64625,-0.4125 -0.275,-0.23375 -0.44,-0.56375 -0.165,-0.33 -0.165,-0.81125 0,-0.94875 0.70125,-1.49875 0.70125,-0.56375 1.91125,-0.56375 0.3025,0 0.605,0.0413 0.3025,0.0275 0.56375,0.0825 0.26125,0.0412 0.45375,0.0962 0.20625,0.055 0.31625,0.0962 l -0.23375,1.1 q -0.20625,-0.11 -0.64625,-0.22 -0.44,-0.12375 -1.05875,-0.12375 -0.53625,0 -0.935,0.22 -0.39875,0.20625 -0.39875,0.66 0,0.23375 0.0825,0.4125 0.0963,0.17875 0.275,0.33 0.1925,0.1375 0.4675,0.26125 0.275,0.12375 0.66,0.26125 0.50875,0.1925 0.9075,0.385 0.39875,0.17875 0.67375,0.42625 0.28875,0.2475 0.44,0.605 0.15125,0.34375 0.15125,0.8525 0,0.99 -0.7425,1.49875 -0.72875,0.50875 -2.09,0.50875 -0.94875,0 -1.485,-0.165 -0.53625,-0.15125 -0.72875,-0.23375 l 0.23375,-1.1 q 0.22,0.0825 0.70125,0.2475 0.48125,0.165 1.27875,0.165 z" />
      </g>
    </g>
    <g
       id="g8032">
      <path
         style="fill:#474747;fill-opacity:1"
         d="m 325.42536,295.38905 c 3.46266,0 6.27977,2.81711 6.27977,6.27977 0,3.46266 -2.81711,6.27976 -6.27977,6.27976 -3.46266,0 -6.27976,-2.8171 -6.27976,-6.27976 0,-3.46266 2.8171,-6.27977 6.27976,-6.27977 z m 0,-1.25595 c -4.16159,0 -7.53571,3.37412 -7.53571,7.53572 0,4.16159 3.37412,7.53571 7.53571,7.53571 4.1616,0 7.53572,-3.37412 7.53572,-7.53571 0,-4.1616 -3.37412,-7.53572 -7.53572,-7.53572 z"
         id="path7864" />
      <g
         transform="matrix(0.86283069,-0.50549303,0.50549303,0.86283069,-112.67492,214.70936)"
         id="g7594">
        <path
           d="m 344.99709,302.40644 c -1.5239,-0.32325 -5.90829,-1.15959 -7.10124,-1.39562 l 0,-4.50497 c 0,-2.08958 -1.72657,-3.79049 -3.84822,-3.79049 -2.12164,0 -3.84821,1.70091 -3.84821,3.79049 l 0,9.56537 c -0.71064,-0.431 -1.52389,-0.79658 -2.35767,-0.91715 -2.33715,-0.33608 -4.05602,1.20577 -4.05602,3.20428 0,1.0326 0.46563,2.06905 1.31096,2.9131 5.09503,5.09503 7.29621,6.57403 7.77211,12.22962 l 12.72348,0 0,-2.24223 c 0,-6.61123 3.84821,-7.73619 3.84821,-12.86458 0,-3.14014 -1.36098,-5.33234 -4.4434,-5.98782 z"
           id="path7592" />
        <path
           d="m 345.45502,312.69657 c -1.05312,1.9023 -2.35767,4.2574 -2.42565,8.23902 l -7.86319,0 c -0.93127,-4.90006 -4.88723,-8.10434 -8.2557,-11.47922 -0.88252,-0.87996 -0.50412,-1.75735 0.56697,-1.7612 1.6201,-0.008 3.92518,2.41668 5.28745,4.11118 l 0,-15.3005 c 0,-0.66318 0.58749,-1.22502 1.28273,-1.22502 0.69525,0 1.28274,0.56184 1.28274,1.22502 l 0,8.91246 c 0,0.40406 0.32838,0.73244 0.73373,0.73244 0.40278,0 0.73116,-0.32838 0.73116,-0.73244 l 0,-0.73757 c 0,-0.68499 0.62854,-1.20321 1.3007,-1.06852 0.51053,0.10133 0.87995,0.54901 0.87995,1.06852 l 0,1.63292 c 0,0.40406 0.32839,0.73245 0.73245,0.73245 0.40406,0 0.73244,-0.32839 0.73244,-0.73245 l 0,-1.06467 c 0,-0.68113 0.62469,-1.19551 1.293,-1.06211 0.50797,0.10006 0.87483,0.54388 0.87483,1.06211 l 0,1.96644 c 0,0.40406 0.32838,0.73244 0.73244,0.73244 0.40406,0 0.73245,-0.32838 0.73245,-0.73244 l 0,-1.16986 c 0,-0.67087 0.69909,-1.11213 1.30582,-0.82865 0.82737,0.39124 1.49568,1.19551 1.49568,3.17734 0,1.73811 -0.59648,2.81305 -1.42,4.30231 z"
           id="path7568"
           style="fill:#efefef;fill-opacity:1" />
      </g>
    </g>
  </g>
</svg>
